<?xml version="1.0" encoding="utf-8"?>
<!-- Generator: Adobe Illustrator 26.4.1, SVG Export Plug-In . SVG Version: 6.00 Build 0)  -->
<svg version="1.1" id="レイヤー_1" xmlns="http://www.w3.org/2000/svg" xmlns:xlink="http://www.w3.org/1999/xlink" x="0px"
	 y="0px" viewBox="0 0 48 48" style="enable-background:new 0 0 48 48;" xml:space="preserve">
<style type="text/css">
	.st0{fill:#FFFFFF;}
</style>
<path class="st0" d="M12,28h24v-3H12V28z M12,21.5h24v-3H12V21.5z M12,15h24v-3H12V15z M44,44l-8-8H7c-0.8,0-1.5-0.3-2.1-0.9
	C4.3,34.5,4,33.8,4,33V7c0-0.8,0.3-1.5,0.9-2.1S6.2,4,7,4h34c0.8,0,1.5,0.3,2.1,0.9C43.7,5.5,44,6.2,44,7V44z M7,7v26h30.2l3.8,3.8
	V7H7z M7,7v29.8V7z"/>
</svg>
