<?xml version="1.0" encoding="UTF-8"?><svg id="b" xmlns="http://www.w3.org/2000/svg" viewBox="0 0 181.41 155.77"><g id="c"><path d="M177.7,.52l-7.64,6.27L79.45,81.19,11,38.39c-.06-.06-.13-.12-.2-.17l-7.34-4.59c-1.07-.66-2.47-.32-3.12,.74-.22,.35-.33,.76-.34,1.18v117.95c0,1.25,1.02,2.27,2.27,2.27H179.14c1.25,0,2.27-1.02,2.27-2.27h0V12.16h0V2.27C181.41,1.01,180.39,0,179.14,0c-.52,0-1.03,.18-1.44,.52ZM11.33,51.86l59,36.86L11.33,137.13V51.86Zm8.94,92.6l60.16-49.39,79,49.37-139.16,.02Zm149.89,0h-.09l.09-.1v.1Zm0-6.53l-80.56-50.4L170.07,21.46l.09-.07v116.54Z"/></g></svg>