<?xml version="1.0" encoding="utf-8"?>
<!-- Generator: Adobe Illustrator 26.3.1, SVG Export Plug-In . SVG Version: 6.00 Build 0)  -->
<svg version="1.1" id="レイヤー_1" xmlns="http://www.w3.org/2000/svg" xmlns:xlink="http://www.w3.org/1999/xlink" x="0px"
	 y="0px" viewBox="0 0 370.1 95.9" style="enable-background:new 0 0 370.1 95.9;" xml:space="preserve">
<style type="text/css">
	.st0{fill:#FFFFFF;}
</style>
<polygon class="st0" points="195.1,80.2 194.1,46.6 189.6,46.6 176.6,71.6 163.7,46.6 159.1,46.6 158.2,80.2 164.1,80.2 163.9,59.6 
	175.5,80.3 175.8,80.3 177.5,80.3 177.8,80.3 189.4,59.6 189.2,80.2 "/>
<path class="st0" d="M310.4,45.3c10.5,0,18,7.5,18,17.8s-7.7,17.8-18,17.8s-18-7.6-18-17.8c-0.1-9.8,7.8-17.7,17.6-17.8
	C310.1,45.3,310.2,45.3,310.4,45.3z M310.4,75.5c6.5,0,11.6-5.3,11.6-12.3s-4.8-12.4-11.6-12.4s-11.6,5.3-11.6,12.4
	S303.9,75.5,310.4,75.5L310.4,75.5z"/>
<polygon class="st0" points="279.6,46.3 252.6,46.3 252.6,51.8 269.7,51.8 251.3,78.2 251.3,80 279.2,80 279.2,74.6 261.1,74.6 
	279.6,48.1 "/>
<polygon class="st0" points="364.2,46.3 364.2,67.8 343.3,46.1 341.5,46.1 341.5,80 347.4,80 347.5,59.2 368.5,80.3 370.1,80.3 
	370.1,46.3 "/>
<polyline class="st0" points="212.2,46.5 212.2,80.2 234.1,80.2 235.3,80.2 235.3,74.7 234.1,74.7 218.3,74.7 218.1,74.7 
	218.1,64.8 231.9,64.8 232.5,64.8 232.5,59.6 231.9,59.6 218.1,59.6 218.1,51.9 218.3,51.9 234.1,51.9 235.3,51.9 235.3,46.5 "/>
<path class="st0" d="M109.4,0.3l-4.7,3.9L48.9,50L6.8,23.6l-0.1-0.1l-4.5-2.8c-0.7-0.4-1.5-0.2-1.9,0.4C0.1,21.4,0,21.6,0,21.9V27
	l0,0v67.5c0,0.8,0.6,1.4,1.4,1.4c0,0,0,0,0,0h108.9c0.8,0,1.4-0.6,1.4-1.4l0,0V90c0,0,0,0,0-0.1V7.5l0,0V1.4c0-0.8-0.6-1.4-1.4-1.4
	C110,0,109.7,0.1,109.4,0.3z M7,31.9l36.3,22.7L7,84.4V31.9z M7,88.9L7,88.9z M12.5,88.9l37-30.4l48.6,30.4L12.5,88.9z M104.8,88.9
	L104.8,88.9L104.8,88.9L104.8,88.9z M104.8,84.9l-49.6-31l49.5-40.7h0.1L104.8,84.9z"/>
</svg>
