<svg id="レイヤー_1" data-name="レイヤー 1" xmlns="http://www.w3.org/2000/svg" viewBox="0 0 370.13 95.9"><title>black_hr</title><polygon points="195.15 80.23 194.08 46.59 189.61 46.59 176.65 71.57 163.68 46.59 159.15 46.59 158.18 80.23 164.11 80.23 163.91 59.57 175.46 80.3 175.77 80.3 177.52 80.3 177.83 80.3 189.38 59.57 189.21 80.23 195.15 80.23"/><path d="M310.37,45.27c10.46,0,18,7.49,18,17.78s-7.72,17.77-18,17.77-18-7.59-18-17.77A17.69,17.69,0,0,1,310.37,45.27Zm0,30.21c6.52,0,11.61-5.34,11.61-12.34s-4.84-12.39-11.61-12.39-11.61,5.34-11.61,12.39S303.9,75.48,310.42,75.48Z"/><polygon points="279.6 46.31 252.55 46.31 252.55 51.78 269.72 51.78 251.3 78.2 251.3 80.03 279.17 80.03 279.17 74.56 261.13 74.56 279.6 48.13 279.6 46.31"/><polygon points="364.19 46.32 364.19 67.84 343.32 46.13 341.45 46.13 341.45 80.04 347.4 80.04 347.55 59.17 368.55 80.28 370.13 80.28 370.13 46.32 364.19 46.32"/><polyline points="212.18 46.49 212.18 80.2 234.1 80.2 235.29 80.2 235.29 74.73 234.1 74.73 218.28 74.73 218.13 74.73 218.13 64.84 231.93 64.84 232.46 64.84 232.46 59.57 231.93 59.57 218.13 59.57 218.13 51.95 218.28 51.95 234.1 51.95 235.29 51.95 235.29 46.49"/><path d="M109.42.32l-4.7,3.86L48.93,50,6.79,23.63l-.12-.1L2.14,20.7A1.4,1.4,0,0,0,0,21.89V27H0V94.5a1.4,1.4,0,0,0,1.4,1.4H110.3a1.4,1.4,0,0,0,1.4-1.4V90s0,0,0-.06V7.48h0V1.4A1.4,1.4,0,0,0,109.42.32ZM7,31.93l36.3,22.69L7,84.42Zm0,57H7Zm5.51,0,37-30.41L98.14,88.92Zm92.28,0h-.05l.05-.06Zm0-4-49.59-31,49.54-40.67.06,0Z"/></svg>