<?xml version="1.0" encoding="UTF-8"?><svg id="b" xmlns="http://www.w3.org/2000/svg" viewBox="0 0 246.1 246.1"><defs><style>.d{fill:#d21c4f;}.e{fill:#414042;}.f{fill:#fff;stroke:#6ca1c9;stroke-miterlimit:10;stroke-width:7.8px;}</style></defs><g id="c"><circle class="f" cx="123.05" cy="123.05" r="119.15"/><g><path class="e" d="M43.25,53.81c-.12,.84-.12,1.11-.12,2.7v8.28c0,1.5,0,1.89,.12,2.64h-4.11c.09-.69,.15-1.62,.15-2.7v-8.25c0-1.53-.03-1.92-.12-2.7l4.08,.03Zm13.62,.03c-.12,.75-.15,1.08-.15,2.79v4.05c-.03,4.68-.24,7.2-.78,9.09-.87,3-2.79,5.25-5.91,6.99-1.59,.9-3.09,1.5-5.85,2.31-.54-1.47-.84-1.98-2.1-3.57,2.94-.57,4.68-1.2,6.48-2.4,2.82-1.86,3.81-3.69,4.14-7.65,.12-1.29,.15-2.61,.15-5.01v-3.75c0-1.53-.03-2.16-.15-2.85h4.17Z"/><path class="e" d="M71.87,63.14c4.53-.84,11.16-3.51,13.11-5.34l2.4,3.39c-.33,.12-.39,.15-.63,.27l-.78,.39c-4.44,2.28-9.09,3.84-14.1,4.77v3.96c-.03,.18-.03,.36-.03,.48,0,1.68,.12,2.34,.54,2.76,.51,.51,2.22,.78,5.13,.78,2.01,0,4.77-.18,6.96-.48,1.44-.18,2.1-.33,3.42-.72l.18,3.99c-.63,0-.78,.03-3.96,.33-1.77,.18-5.55,.36-7.38,.36-3.78,0-5.85-.39-7.02-1.29-.84-.63-1.29-1.59-1.47-3.06-.06-.51-.09-1.02-.09-2.76l-.03-13.92c0-1.53,0-2.01-.12-2.76h4.02c-.12,.72-.15,1.26-.15,2.79v6.06Zm20.76-7.92c0,1.92-1.56,3.48-3.48,3.48s-3.45-1.56-3.45-3.48,1.56-3.45,3.45-3.45,3.48,1.56,3.48,3.45Zm-5.43,0c0,1.08,.87,1.98,1.95,1.98s1.98-.9,1.98-1.98-.87-1.95-1.98-1.95-1.95,.87-1.95,1.95Z"/><path class="e" d="M95.18,63.86c1.32,.18,1.89,.21,4.86,.21h15.99c2.97,0,3.54-.03,4.86-.21v4.17c-1.2-.15-1.53-.15-4.89-.15h-15.93c-3.36,0-3.69,0-4.89,.15v-4.17Z"/><path class="e" d="M131,78.8c.15-.96,.18-1.77,.18-3.36v-19.23c0-1.47-.06-2.25-.18-3.06h4.11c-.12,.9-.12,1.29-.12,3.15v5.58c4.11,1.44,8.82,3.63,13.62,6.33l-2.1,3.54c-2.49-1.71-5.61-3.42-10.62-5.73-.69-.33-.78-.36-1.02-.51,.09,.84,.12,1.2,.12,2.04v7.92c0,1.56,.03,2.34,.12,3.33h-4.11Z"/><path class="e" d="M157.82,73.91c-1.35,0-2.19,.03-3.51,.18v-3.3c.75,.12,1.95,.18,3.21,.18h8.64v-.24c0-.75-.03-1.35-.12-1.77h3.57c-.09,.45-.12,1.05-.12,1.77v.24h9.27c1.23,0,2.22-.06,3.09-.18v3.3c-1.02-.12-2.19-.18-3.51-.18h-8.85v3.33c0,1.17,.06,1.95,.21,2.91h-3.75c.15-.99,.21-1.8,.21-2.91v-3.33h-8.34Zm5.55-15.78c.54,.39,.69,.51,1.14,.87,.54-.72,.75-1.05,1.11-1.74h-7.86c-1.29,0-2.13,.03-3.09,.15v-3.27c.99,.12,1.98,.18,3.54,.18h8.01v-.3c0-.72-.06-1.26-.18-1.89h3.66c-.12,.66-.18,1.14-.18,1.86v.33h8.55c1.59,0,2.61-.06,3.57-.18v3.27c-.96-.12-1.8-.15-3.12-.15h-9.63c-.87,1.44-1.41,2.19-2.43,3.42,.6,.54,.72,.69,1.23,1.23,1.32-1.44,1.86-2.13,3-3.72l2.4,1.59c-1.8,2.16-3.54,3.87-6.27,6.18,2.19-.09,2.79-.12,4.17-.3-.42-.63-.63-.93-1.29-1.77l2.19-.93c1.65,2.07,1.86,2.34,3.69,5.49l-2.58,1.05c-.39-.9-.54-1.2-.78-1.71-2.97,.48-4.86,.69-9.69,1.08-.69,.03-1.2,.09-1.47,.12l-.3-2.07c-1.47,1.05-2.67,1.74-5.13,2.97l-1.2-3.12c2.34-.63,4.65-1.86,6.63-3.54l1.5,2.34-.72,.57h.33c.06,0,.87-.03,1.08-.03,1.11-.93,1.59-1.35,2.49-2.22-1.23-1.35-2.55-2.49-4.32-3.69l1.95-2.07Zm-5.79-.45c1.71,1.32,2.88,2.34,4.17,3.75l-2.25,2.22c-1.44-1.74-2.34-2.61-4.2-3.99l2.28-1.98Zm22.68,2.01c-1.68,1.68-3.15,2.88-5.25,4.32l-2.07-2.19c2.22-1.44,3.39-2.43,4.95-4.14l2.37,2.01Zm-4.05,4.02c2.46,1.5,3.12,1.98,5.34,3.81l-2.13,2.49c-1.65-1.74-3-2.88-5.04-4.23l1.83-2.07Z"/><path class="e" d="M187.07,78.56c-.03-.3-.03-.48-.15-1.17-.57-3.51-.81-6.39-.81-9.54,0-2.7,.18-5.34,.57-7.95q.15-.9,.81-4.29c.21-1.05,.33-1.92,.33-2.22v-.12l4.05,.42c-1.23,2.61-2.37,9.84-2.4,15.06q-.03,1.08-.03,1.56v.48c0,.24,0,.3-.03,.63h.03q.15-.33,.36-.87c.06-.21,.21-.54,.36-1.02q.27-.63,.57-1.35c.06-.09,.09-.18,.36-.93l2.49,1.11c-1.77,3.48-2.97,7.2-2.97,9.18,0,.21,0,.24,.06,.81l-3.6,.21Zm6.78-19.65c1.41,.36,2.97,.48,5.43,.48,1.05,0,1.71,0,2.76-.06,0-1.77-.03-3.27-.03-4.5,0-.66-.03-1.11-.09-1.44l3.75-.09c-.15,.84-.21,2.28-.21,4.41v1.38c1.56-.18,2.88-.42,4.05-.72q.18-.06,.66-.24l.24-.06,.12,3.39c-.3,.03-.33,.03-.87,.15-1.02,.21-2.58,.48-4.17,.66v.66c0,1.68,0,1.74,.3,6.78,2.16,1.02,2.91,1.44,4.71,2.73,.39,.27,.54,.36,.84,.51l-1.44,3.63c-.51-.6-1.41-1.38-2.25-1.92-1.02-.66-1.71-1.11-1.89-1.23v.42c0,.66-.09,1.26-.24,1.68-.69,1.77-2.79,2.82-5.7,2.82-3.93,0-6.33-1.86-6.33-4.92s2.55-4.95,6.18-4.95c1.11,0,1.86,.12,2.67,.42-.09-.75-.12-2.22-.24-6.39-1.2,.03-1.92,.06-2.7,.06-1.11,0-2.31-.03-3.72-.15-.42,0-.75-.03-.9-.03-.27-.03-.45-.03-.51-.03-.15-.03-.24-.03-.3-.03-.03,0-.09,0-.18,.03l.06-3.45Zm6.09,12.57c-1.92,0-3.12,.75-3.12,1.98,0,1.11,1.08,1.86,2.76,1.86,1.11,0,1.98-.33,2.43-.93,.27-.36,.39-.81,.39-1.62v-.81c-.99-.36-1.56-.48-2.46-.48Z"/><path class="d" d="M52.46,128.35c-2.01-2.08-3.18-5.27-3.18-8.58,0-8.32,7.02-13.59,18.14-13.59,7.87,0,13.65,2.54,16.45,7.08,1.1,1.82,1.75,4.16,1.75,6.5,0,6.05-3.45,10.47-9.36,12.16,2.92,.39,4.88,1.24,7.02,3.06,3.05,2.47,4.55,5.85,4.55,10.14,0,9.69-7.28,15.02-20.61,15.02-7.54,0-12.74-1.62-16.45-5.2-2.41-2.34-3.77-5.85-3.77-9.75,0-4.55,1.75-8.13,5.33-10.66,2.15-1.5,3.77-2.15,6.44-2.6-2.73-.71-4.42-1.69-6.31-3.57Zm26.2,16.12c0-5.4-4.23-8.65-11.25-8.65s-11.31,3.31-11.31,8.71,4.16,8.45,11.18,8.45,11.38-3.06,11.38-8.52Zm-20.67-23.79c0,4.75,3.64,7.74,9.56,7.74s9.29-2.93,9.29-7.67-3.64-7.54-9.42-7.54-9.43,2.93-9.43,7.48Z"/><path class="d" d="M103.36,145.58c.58,1.88,1.04,2.73,1.95,3.77,1.82,2.21,4.55,3.31,8,3.31,6.43,0,10.66-4.29,10.66-10.73s-4.03-10.47-10.21-10.47c-3.19,0-6.05,1.04-8.06,2.99-.91,.91-1.37,1.5-1.95,2.93l-8.12-.78c.65-4.62,.71-4.94,.84-6.76l1.5-16.12c.06-1.17,.2-3.38,.26-6.63,1.95,.13,3.45,.19,6.89,.19h15.99c4.49,0,6.11-.06,9.04-.52v8.19c-2.86-.39-5.39-.52-8.97-.52h-15.28l-1.04,11.38c-.07,.52-.2,1.43-.39,2.73,3.19-2.73,6.63-3.97,11.12-3.97,5.27,0,9.49,1.56,12.68,4.88,3.19,3.12,4.62,7.02,4.62,12.22,0,11.44-7.48,18.53-19.57,18.53-6.44,0-11.25-1.82-14.82-5.66-1.75-1.89-2.67-3.45-4.09-7.09l8.97-1.88Z"/><path class="d" d="M145.22,132.45c-2.47-2.4-3.77-6.37-3.77-11.25,0-9.1,4.68-14.5,12.61-14.5,3.58,0,6.63,1.17,8.78,3.31,2.47,2.41,3.77,6.31,3.77,11.18s-1.3,8.84-3.77,11.25c-2.21,2.21-5.2,3.32-8.78,3.32s-6.63-1.1-8.84-3.32Zm42.9-26.39l3.38,2.6-40.95,52.39-3.31-2.6,40.89-52.39Zm-39.98,15.02c0,5.98,2.08,9.23,5.92,9.23s5.92-3.25,5.92-9.1c0-2.34-.46-4.68-1.17-6.05-1.11-2.02-2.6-2.93-4.75-2.93-3.77,0-5.92,3.19-5.92,8.84Zm27.69,36.01c-2.47-2.41-3.77-6.31-3.77-11.25s1.3-8.71,3.77-11.18c2.21-2.15,5.27-3.32,8.84-3.32s6.63,1.17,8.78,3.32c2.47,2.4,3.77,6.31,3.77,11.18s-1.3,8.84-3.77,11.25c-2.21,2.21-5.2,3.31-8.78,3.31s-6.63-1.1-8.84-3.31Zm4.68-18.14c-1.17,1.62-1.75,3.83-1.75,6.76,0,5.98,2.08,9.23,5.92,9.23s5.92-3.25,5.92-9.56c0-2.6-.65-4.94-1.75-6.5-1.11-1.43-2.28-2.02-4.16-2.02s-3.12,.58-4.16,2.08Z"/><path class="e" d="M75.89,176.79c.12,2.01,1.02,6.33,1.98,9.39q1.95-.72,7.77-2.64c.54-.18,.69-.24,1.14-.45l1.29,3.78c-2.61,.51-6.54,1.65-9.9,2.88-4.38,1.62-6.57,3.54-6.57,5.7s2.04,3.12,6.87,3.12c3.75,0,7.44-.45,9.69-1.23l.33,4.11c-.66,0-.81,.03-2.43,.21-3.24,.33-4.92,.45-7.02,.45-4.17,0-6.78-.51-8.7-1.65-1.65-.99-2.61-2.85-2.61-5.01,0-2.01,.96-3.93,2.67-5.37,1.17-.99,2.13-1.59,4.08-2.58-.75-2.43-1.26-4.44-2.01-8.13-.3-1.44-.33-1.5-.48-1.95l3.9-.63Z"/><path class="e" d="M106.16,177.99c0-.69-.06-1.29-.18-1.89h3.69c-.12,.63-.18,1.2-.18,1.86v.39h8.85c1.35,0,2.19-.06,3.15-.18v3.03c-.99-.12-1.74-.15-3.12-.15h-20.7c-1.35,0-2.1,.03-3.09,.15v-3.03c.96,.12,1.86,.18,3.27,.18h8.31v-.36Zm-10.74,14.73c0-1.02-.03-1.8-.12-2.73,.96,.09,1.83,.12,3.12,.12h19.44c1.44,0,2.16-.03,2.94-.12-.09,.93-.12,1.62-.12,2.7v7.65c0,1.5-.15,2.07-.72,2.58-.6,.54-1.5,.72-3.6,.72-.63,0-.78,0-1.74-.06q-.48-.03-.96-.03c-.06-1.35-.21-2.04-.66-3,1.65,.18,2.94,.27,3.78,.27,.57,0,.72-.15,.72-.63v-7.47h-18.9v7.98c0,1.53,.03,2.25,.18,3.3h-3.54c.12-.63,.18-1.89,.18-3.3v-7.98Zm3.72-8.43c0-.96-.03-1.47-.09-2.19,.87,.09,1.59,.12,2.91,.12h12.48c1.2,0,1.83-.03,2.67-.12-.06,.78-.09,1.23-.09,2.19v2.58c0,1.17,.03,1.5,.09,2.22-.81-.09-1.5-.12-2.82-.12h-12.42c-1.17,0-1.95,.03-2.82,.12,.06-.63,.09-1.2,.09-2.22v-2.58Zm15.3,13.98c0,.87,.03,1.47,.09,2.01-.57-.06-1.68-.09-2.49-.09h-7.56v1.5h-3.09c.09-.57,.12-1.23,.12-2.43v-3.48c0-.87-.03-1.38-.09-1.98,.69,.06,1.32,.09,2.43,.09h8.22c1.14,0,1.56-.03,2.46-.09-.06,.57-.09,1.02-.09,1.92v2.55Zm-12.18-11.79h11.61v-1.83h-11.61v1.83Zm2.22,11.34h7.08v-1.65h-7.08v1.65Z"/><path class="e" d="M135.65,185.01c-.24,.63-.24,.66-.63,2.01-1.05,3.66-1.92,5.58-3.81,8.52-1.41,2.13-2.7,3.63-4.53,5.16-.99-1.14-1.56-1.68-2.85-2.52,1.74-1.26,3.03-2.52,4.35-4.26,1.77-2.37,2.79-4.44,3.57-7.35h-3.78c-1.17,0-2.28,.06-3,.18v-3.66c.81,.12,1.59,.15,3.21,.15h3.15c1.38,0,2.07-.03,2.64-.12l1.68,1.89Zm14.85-1.92s-.57,.63-1.59,1.77c-1.71,1.89-3.3,3.39-5.37,5.07,.99,1.41,2.16,2.76,3.42,3.96,1.68,1.59,3.03,2.58,5.22,3.72-1.02,1.02-1.59,1.71-2.58,3.24-2.49-1.77-3.6-2.76-5.13-4.47-2.01-2.31-3.54-4.86-4.74-7.86,.12,3,.15,3.69,.15,4.68l.03,7.17c0,1.35-.21,1.95-.78,2.43-.54,.48-1.44,.69-2.88,.69-1.11,0-2.73-.09-3.9-.18-.15-1.41-.3-2.1-.84-3.45,1.59,.24,2.91,.36,3.9,.36,.9,0,1.08-.12,1.08-.75v-19.83c0-1.23-.06-2.25-.21-3.15h3.81c-.15,.96-.21,1.89-.21,3.18v2.1c.36,1.92,.78,3.06,1.98,5.43,2.88-2.52,4.71-4.65,5.58-6.51l3.06,2.4Z"/><path class="e" d="M178.61,191.4c1.23,0,2.01-.03,2.85-.12v2.91c-.75-.09-1.59-.12-3.03-.12h-8.91v1.86h8.64c1.62,0,2.4-.03,3.39-.15v3.33c-1.08-.12-2.04-.18-3.69-.18h-8.34v1.68c0,1.5,.06,2.43,.18,3.51h-3.81c.12-1.2,.18-2.04,.18-3.48v-1.71h-7.95c-1.65,0-2.64,.06-3.69,.18v-3.36c.9,.12,1.77,.18,3.24,.18h8.4v-1.86c-.99,0-1.71,.03-2.46,.09,.06-.93,.09-1.47,.09-2.85v-3.96c0-.9,.03-1.86,.06-2.52-.63,.87-.96,1.23-1.8,1.98-.45-.78-.6-1.05-1.14-1.71l-1.77,2.4c-1.68-1.35-2.97-2.19-4.95-3.15l2.13-2.43c1.65,.81,2.52,1.32,3.84,2.19,3-2.37,4.92-4.95,6.15-8.22l3.33,.87c-.12,.21-.24,.42-.3,.51q-.51,.87-1.29,2.07h3.81c.87-1.32,1.29-2.13,1.68-3.33l3.09,.81c-.15,.24-.27,.45-.33,.57-.57,.96-.66,1.08-1.26,1.95h3.09c1.08,0,2.19-.06,3.03-.18v2.94c-.75-.09-1.59-.12-2.61-.12h-3.99v1.5h3.12c1.5,0,2.1-.03,2.67-.09v2.64c-.75-.06-1.32-.09-2.67-.09h-3.12v1.47h3.12c1.44,0,1.92-.03,2.67-.09v2.64c-.81-.06-1.38-.09-2.67-.09h-3.12v1.53h4.14Zm-15.9-1.41c-2.07,2.1-3.45,3.21-6.54,5.25l-1.95-2.97c.45-.18,.9-.42,1.5-.78,2.16-1.26,3.27-2.13,5.43-4.23l1.56,2.73Zm-5.04-13.86c2.16,1.08,3.12,1.71,4.83,3.12l-1.98,2.67c-1.77-1.65-2.85-2.37-4.95-3.33l2.1-2.46Zm13.77,7.35v-1.5h-4.62v1.5h4.62Zm-4.62,3.93h4.62v-1.47h-4.62v1.47Zm0,3.99h4.62v-1.53h-4.62v1.53Z"/></g></g></svg>