<?xml version="1.0" encoding="UTF-8"?><svg id="b" xmlns="http://www.w3.org/2000/svg" viewBox="0 0 246.1 246.1"><defs><style>.d{fill:#d21c4f;}.e{fill:#414042;}.f{fill:#fff;stroke:#6ca1c9;stroke-miterlimit:10;stroke-width:7.8px;}</style></defs><g id="c"><g><circle class="f" cx="123.05" cy="123.05" r="119.15"/><g><path class="e" d="M98.24,49.33c0-.65-.05-1.03-.12-1.46h2.88c-.1,.38-.12,.79-.12,1.49v.86h5.95c1.42,0,2.38-.05,3.02-.14v2.66c-.72-.07-1.8-.12-2.98-.12h-14.21c.02,10.18-.55,13.8-2.76,17.4-.72-.89-1.08-1.25-2.14-2.06,.96-1.49,1.42-2.78,1.8-4.87,.36-2.04,.5-4.61,.5-9.34,0-2.04-.02-2.81-.1-3.65,.84,.07,1.75,.12,2.83,.12h5.42v-.89Zm.91,6.26c0-1.32-.02-1.78-.12-2.38h2.74c-.07,.55-.1,1.06-.1,2.38v.29h5.04c1.22,0,1.99-.05,2.54-.14v2.64c-.7-.1-1.51-.14-2.45-.14h-5.14v2.52h4.39c1.01,0,1.54-.02,2.11-.1-.07,.77-.1,1.39-.1,2.42v3.91c0,1.49,.02,2.35,.14,3.12h-2.74v-1.03h-8.88v1.01h-2.71c.1-.67,.14-1.63,.14-2.95v-4.37c0-.89-.02-1.49-.1-2.11,.6,.07,1.13,.1,2.14,.1h3.07v-5.16Zm-2.54,11.11h8.88v-3.55h-8.88v3.55Z"/><path class="e" d="M115.28,56.75c-.77,0-1.1,.02-1.56,.07v-1.94c-.36,.31-.55,.46-1.1,.89-.31-1.08-.53-1.63-1.03-2.5,1.1-.7,1.82-1.34,2.74-2.45,.77-.89,1.34-1.75,1.85-2.69h2.57c.7,1.15,1.68,2.16,3.19,3.29v-1.13c.58,.1,1.18,.12,2.21,.12h2.69v-.53c0-.86-.05-1.39-.14-1.94h2.59c-.12,.53-.14,1.03-.14,1.94v.53h2.95c-.65-.58-.82-.67-2.28-1.51l1.34-1.3c1.2,.58,1.66,.84,2.5,1.54l-1.1,1.27c.86-.02,1.1-.02,1.66-.12v2.57c-.6-.1-1.1-.12-1.99-.12h-3.07v1.58h2.45c1.13,0,1.58-.02,2.18-.07-.07,.7-.1,1.15-.1,2.45v11.23c0,1.39-.62,1.87-2.42,1.87-.24,0-.36,0-1.18-.05-.07-.86-.17-1.37-.48-2.28,.91,.12,1.06,.12,1.37,.12,.34,0,.43-.12,.43-.55v-2.4h-2.26v2.93c0,1.1,.02,1.63,.1,2.21h-2.5c.07-.62,.1-1.15,.1-2.18v-2.95h-2.16v2.78c0,1.44,.02,1.97,.1,2.64h-2.47c.1-.7,.12-1.37,.12-2.62v-10.8c0-1.27-.02-1.7-.07-2.4,.62,.05,1.13,.07,2.4,.07h2.09v-1.58h-2.69c-.96,0-1.58,.02-2.21,.1-.26,.5-.34,.65-.62,1.27-1.73-1.27-2.74-2.3-3.79-3.84-.98,1.68-2.11,3.07-3.55,4.39,.38,.02,.74,.05,1.3,.05h1.13v-.17c0-1.01-.02-1.49-.1-2.04h2.57c-.1,.55-.12,.98-.12,2.02v.19h1.08c.86,0,1.1,0,1.51-.07v2.18c-.41-.05-.65-.07-1.46-.07h-1.13v1.73h1.25c.96,0,1.42-.02,1.92-.07v2.3c-.5-.07-.86-.1-1.87-.1h-5.86c-.86,0-1.39,.02-1.97,.12v-2.35c.6,.07,1.06,.1,1.97,.1h2.21v-1.73h-1.1Zm3.43,13.08v-.82h-2.98v1.06h-2.57c.1-.62,.12-1.15,.12-2.11v-4.06c0-.82-.02-1.32-.1-1.94,.53,.07,1.06,.1,1.87,.1h4.39c.84,0,1.25-.02,1.73-.1-.02,.41-.05,.98-.05,1.82v4.32c0,.82,.02,1.22,.1,1.73h-2.52Zm-2.98-2.93h2.98v-2.86h-2.98v2.86Zm8.93-10.42v1.99h2.16v-1.99h-2.16Zm2.16,4.06h-2.16v2.04h2.16v-2.04Zm2.3-2.06h2.26v-1.99h-2.26v1.99Zm2.26,4.1v-2.04h-2.26v2.04h2.26Z"/><path class="e" d="M138.94,51.11c-1.03,0-1.61,.02-2.18,.1v-2.57c.74,.07,1.49,.12,2.57,.12h6.46c1.27,0,1.9-.02,2.57-.12v2.57c-.58-.07-.96-.1-2.04-.1v2.4h.17c1.15,0,1.68-.02,2.33-.1v2.59c-.67-.07-1.25-.1-2.28-.1h-.22v2.3c0,.86,0,1.22,.05,1.9h1.97c-.1,.43-.12,.82-.12,1.51v.74h4.8c1.34,0,2.21-.05,2.83-.14v2.62c-.72-.07-1.58-.12-2.78-.12h-4.85v2.18h6.77c1.3,0,2.16-.05,2.81-.12v2.69c-.82-.1-1.73-.14-3.02-.14h-15.51c-1.25,0-2.16,.05-2.95,.14v-2.69c.65,.07,1.56,.12,2.76,.12h6.46v-2.18h-4.51c-1.13,0-1.99,.05-2.76,.12v-2.59c.67,.1,1.22,.12,2.47,.12h4.8v-.72c0-.26,0-.43-.02-.79h-1.85c.1-.7,.14-1.61,.14-2.62v-2.33h-2.35c-.14,1.15-.41,2.06-.86,3.02-.55,1.15-1.22,1.94-2.57,3.05-.6-.84-1.03-1.3-1.92-1.99,1.78-1.27,2.38-2.18,2.76-4.08h-.36c-.98,0-1.63,.02-2.28,.12v-2.64c.7,.1,1.34,.12,2.35,.12h.53c0-.19,0-.98,.02-2.4h-.17Zm2.71,0v.74c0,.6-.02,1.15-.02,1.66h2.16v-2.4h-2.14Zm7.9,6.67c.07-.53,.12-1.13,.12-1.92v-4.7c0-.82-.05-1.44-.12-1.97h2.74c-.07,.5-.1,1.01-.1,1.82v5.04c0,.77,.02,1.27,.07,1.73h-2.71Zm7.54,.79c0,2.06-.65,2.52-3.48,2.52-.65,0-1.27-.02-1.99-.1-.14-1.13-.29-1.73-.7-2.62,.94,.14,1.9,.22,2.54,.22,.91,0,.98-.05,.98-.55v-7.87c0-.94-.02-1.44-.12-2.06h2.88c-.07,.5-.12,1.2-.12,2.26v8.21Z"/><path class="e" d="M54.99,91.96c-.98,0-1.75,.05-2.54,.14v-2.47c.74,.1,1.51,.14,2.54,.14h6.62v-1.54h-5.16c-.94,0-1.46,.02-2.14,.12v-2.33c.65,.1,1.13,.12,2.14,.12h5.16v-1.49h-5.76c-1.08,0-1.87,.05-2.57,.12v-2.4c.77,.1,1.51,.14,2.57,.14h2.81c-.55-.91-.91-1.37-1.42-1.92l2.42-.84c.77,1.03,1.3,1.87,1.78,2.76h3.05c.62-.82,1.1-1.63,1.56-2.64l2.62,.67c-.41,.67-.86,1.3-1.39,1.97h2.98c1.13,0,1.85-.05,2.57-.14v2.4c-.72-.07-1.49-.12-2.57-.12h-6.05v1.49h5.42c1.01,0,1.49-.02,2.16-.12v2.33c-.67-.1-1.2-.12-2.16-.12h-5.42v1.54h6.89c1.13,0,1.85-.05,2.57-.14v2.47c-.72-.12-1.39-.14-2.57-.14h-6.94q-.02,.14-.07,.72s-.05,.34-.14,.94h6.86c1.15,0,1.8-.02,2.57-.12v2.47c-.82-.1-1.68-.14-2.76-.14h-5.42c1.01,1.15,2.28,2.04,3.84,2.66,1.54,.6,2.81,.86,4.99,1.01-.62,1.13-.82,1.63-1.08,2.76-2.76-.48-4.44-1.03-6.17-1.99-1.66-.96-2.93-2.11-3.96-3.6-.72,1.18-1.68,2.23-2.95,3.12-1.61,1.13-3.24,1.73-6.62,2.42-.24-1.01-.46-1.44-1.15-2.62,3.86-.38,6.46-1.56,8.18-3.77h-4.78c-1.08,0-1.94,.05-2.76,.14v-2.47c.77,.1,1.51,.12,2.57,.12h5.98c.1-.41,.12-.53,.12-.67,.02-.31,.05-.53,.07-.6,.02-.02,.02-.05,.02-.07l-.05-.29s.02,0,.02-.02h-6.48Z"/><path class="e" d="M79.83,95.35c-.86,.48-1.32,.72-2.57,1.34-.36-1.01-.62-1.51-1.25-2.35,2.14-.86,3.91-1.78,5.42-2.76,1.03-.7,2.18-1.61,3.19-2.59,.55-.55,.79-.82,1.22-1.44h2.45c.98,1.49,2.62,2.93,4.75,4.2,1.56,.91,3.29,1.68,5.23,2.35-.62,.94-.77,1.22-1.22,2.57-1.13-.5-1.39-.62-2.74-1.37v4.51c0,1.01,.02,1.63,.14,2.38h-2.69v-1.03h-9.41v1.03h-2.69c.1-.77,.14-1.44,.14-2.4v-4.44Zm5.64-13.95c0-.6-.02-.98-.12-1.51h2.95c-.12,.5-.14,.89-.14,1.51v.31h6.67c.96,0,1.78-.02,2.66-.1-.07,.53-.1,1.1-.1,1.75v1.78c0,.72,.02,1.2,.1,1.8h-2.59v-2.81h-15.62v2.81h-2.62c.1-.62,.12-1.08,.12-1.8v-1.78c0-.62-.05-1.18-.1-1.75,.86,.07,1.68,.1,2.64,.1h6.14v-.31Zm-.12,4.25c-1.25,1.44-1.92,2.09-3.34,3.17-1.2,.89-1.9,1.32-3.41,2.09-.58-.86-.91-1.27-1.73-2.02,1.44-.6,2.14-.96,3.14-1.61,1.27-.84,1.94-1.46,3.19-2.88l2.14,1.25Zm-2.98,13.08h9.41v-3.1h-9.41v3.1Zm8.76-5.4c-1.87-1.32-2.71-2.09-4.01-3.7-1.25,1.46-2.66,2.71-4.13,3.7h8.14Zm-.53-9.02c2.42,2.35,3.79,3.22,6.79,4.3-.58,.82-.74,1.1-1.3,2.28-3.38-1.44-4.68-2.35-7.49-5.18l1.99-1.39Z"/><path class="e" d="M114.15,85.39l.02-1.08v-.77c0-1.58-.02-2.11-.12-2.66h3.1c-.07,.55-.1,.67-.1,1.61q0,1.46-.02,2.9h1.54c1.7,0,2.18-.02,3.12-.17v2.93c-.84-.1-1.49-.12-3.07-.12h-1.61c-.05,2.88-.05,3.05-.17,3.96-.34,3.07-1.37,5.11-3.46,6.89-1.3,1.1-2.47,1.73-4.68,2.52-.46-1.03-.77-1.49-1.8-2.54,2.28-.7,3.43-1.27,4.58-2.28,1.63-1.42,2.33-3,2.54-5.76,.05-.55,.05-1.13,.1-2.78h-6.22v3.6c0,1.01,.02,1.39,.1,2.02h-3.12c.07-.53,.1-1.18,.1-2.06v-3.55h-1.46c-1.58,0-2.23,.02-3.07,.12v-2.93c.94,.14,1.42,.17,3.12,.17h1.42v-2.4c0-1.01-.02-1.51-.12-2.14h3.14c-.1,.79-.1,.84-.1,2.06v2.47h6.24Z"/><path class="e" d="M143.77,85.24c-.19,.36-.26,.58-.41,1.08-1.87,7.56-6.19,12.48-13.66,15.58-.62-1.25-1.03-1.8-2.11-2.86,6.65-2.06,10.99-6.53,12.53-12.91h-11.42c-1.78,0-2.23,.02-3.02,.14v-3.12c.86,.14,1.44,.17,3.07,.17h11.02c.86,0,1.27-.02,1.73-.07-.41-.86-.86-1.58-1.49-2.42l1.75-.65c.94,1.22,1.49,2.21,2.14,3.79l-.96,.38,.84,.89Zm1.42-1.7c-.58-1.42-1.25-2.64-2.06-3.72l1.73-.65c.98,1.27,1.56,2.23,2.11,3.65l-1.78,.72Z"/><path class="e" d="M167.14,100.96c-1.99-2.45-4.75-5.14-7.37-7.13-2.71,3.02-5.47,5.14-9.15,6.94-.67-1.25-.96-1.63-1.94-2.66,1.85-.72,3-1.37,4.8-2.64,3.62-2.54,6.5-6.02,8.06-9.77l.26-.62q-.38,.02-7.94,.14c-1.15,.02-1.8,.07-2.62,.19l-.1-3.07c.67,.12,1.13,.14,2.11,.14h.58l8.45-.12c1.34-.02,1.54-.05,2.14-.26l1.58,1.63c-.31,.36-.5,.7-.77,1.3-1.1,2.57-2.28,4.66-3.74,6.62,1.51,1.01,2.81,2.02,4.44,3.48q.6,.53,3.5,3.34l-2.3,2.5Z"/><path class="e" d="M192.05,84.81c-.24,.36-.34,.58-.6,1.44-1.1,3.65-2.81,6.89-4.92,9.27-2.21,2.52-4.85,4.39-8.54,6.1-.67-1.2-.98-1.61-2.04-2.52,2.4-.98,3.74-1.7,5.26-2.83,3.43-2.54,5.69-5.83,7.01-10.13l-7.22,.12c-1.46,2.33-3.34,4.39-5.62,6.14-.72-.98-1.08-1.3-2.33-2.06,2.74-1.87,4.46-3.79,6.22-6.96,.74-1.37,1.13-2.3,1.22-3.17l3.29,.65q-.14,.22-.41,.74-.07,.12-.31,.67-.07,.14-.31,.62t-.38,.77c.31-.02,.7-.05,1.15-.05l5.26-.07c.94,0,1.2-.05,1.75-.24l1.54,1.51Z"/><path class="e" d="M25.71,116.04c-1.56,.31-2.06,.38-3.5,.6-.19-.82-.43-1.39-.89-2.3,3.96-.41,7.75-1.34,9.24-2.3l1.56,2.21c-1.73,.6-2.83,.94-3.89,1.22v3.1h1.92c.86,0,1.46-.02,2.02-.12v2.62c-.6-.1-1.18-.12-2.06-.12h-1.75c.94,1.73,2.06,3.05,3.84,4.49-.48,.65-.96,1.56-1.27,2.35-1.42-1.44-1.94-2.18-2.81-3.84,.07,.82,.12,1.8,.12,3.02v4.18c0,1.51,.02,2.21,.14,3.05h-2.86c.12-.89,.17-1.68,.17-3.05v-4.01c0-.96,.05-2.06,.12-2.88-.7,1.75-1.03,2.42-1.63,3.38-.67,1.03-1.18,1.68-2.09,2.64-.48-1.13-.84-1.8-1.34-2.52,1.03-.96,1.8-1.9,2.62-3.22,.62-1.01,1.56-2.78,1.87-3.6h-1.73c-.94,0-1.54,.05-2.21,.14v-2.66c.62,.12,1.18,.14,2.26,.14h2.16v-2.52Zm10.56-2.26c-.12,.79-.14,1.49-.14,2.9v9.07c0,1.54,.02,2.14,.12,2.86h-2.83c.1-.7,.12-1.2,.12-2.81v-9.12c0-1.39-.02-2.06-.14-2.9h2.88Zm5.71-1.44c-.12,.96-.17,1.9-.17,3.26v15.43c0,1.27-.31,1.97-1.08,2.38-.58,.31-1.39,.41-3.34,.41-.6,0-.96,0-1.78-.05-.19-1.08-.38-1.63-.82-2.66,1.37,.14,2.28,.22,3.17,.22,1.06,0,1.22-.1,1.22-.72v-15c0-1.2-.05-2.21-.14-3.26h2.93Z"/><path class="e" d="M49.3,126.6c-.34,3.19-1.06,5.45-2.45,7.58-1.01-.96-1.34-1.22-2.33-1.9,.86-1.25,1.42-2.52,1.75-4.06,.24-1.13,.41-2.38,.48-3.67,.12-2.02,.22-5.42,.22-8.26,0-1.73-.02-2.5-.12-3.48,.84,.07,1.46,.1,2.76,.1h13.46c1.34,0,2.02-.02,2.76-.1-.07,.82-.1,1.42-.1,2.71v15.77c0,1.99-.72,2.5-3.46,2.5-.74,0-1.97-.05-2.69-.1-.12-.91-.29-1.49-.67-2.5,1.2,.12,2.26,.19,3.02,.19,.98,0,1.2-.1,1.2-.6v-4.2h-5.76v3.94c0,1.39,.02,2.16,.12,2.86h-2.83c.1-.72,.14-1.42,.14-2.83v-3.96h-5.52Zm5.52-5.66h-5.3c0,.7-.02,1.18-.02,1.51-.02,1.13-.02,1.3-.02,1.78h5.35v-3.29Zm0-5.5h-5.23v2.47l-.02,.67h5.26v-3.14Zm8.33,3.14v-3.14h-5.76v3.14h5.76Zm0,5.64v-3.29h-5.76v3.29h5.76Z"/><path class="e" d="M72.03,121.18c-1.2,0-2.04,.05-2.88,.14v-2.64c.65,.1,1.56,.14,2.93,.14h5.47v-2.09h-3.6c-1.27,0-2.04,.02-2.74,.1v-2.52c.62,.1,1.56,.14,2.83,.14h3.5v-.41c0-.94-.05-1.46-.14-2.11h2.93c-.12,.62-.14,1.13-.14,2.11v.41h1.73c1.22,0,1.99-.05,2.69-.14v2.06c1.27-1.32,2.28-2.66,2.78-3.65l2.38,1.56c-.17,.17-.53,.58-1.08,1.22-.96,1.13-1.99,2.16-3.26,3.31h2.47c1.25,0,1.97-.05,2.74-.14v2.64c-.79-.1-1.75-.14-2.98-.14h-5.16c-.91,.65-1.51,1.06-2.59,1.75,.53-.02,1.32-.02,1.94-.02h3.53c1.15,0,1.82-.02,2.52-.07-.07,.7-.1,1.27-.1,2.62v5.93c0,1.25,.05,2.06,.14,2.71h-2.78v-1.03h-8.71v1.03h-2.81c.1-.79,.14-1.66,.14-2.71v-3.72c0-.38,0-.91,.02-1.34-1.46,.72-1.97,.94-3.82,1.68-.41-.98-.72-1.51-1.42-2.4,3.65-1.08,6.72-2.47,9.89-4.42h-6.43Zm4.42,5.69h8.69v-1.78h-8.69v1.78Zm0,3.94h8.69v-1.85h-8.69v1.85Zm5.42-11.98c.89-.7,1.54-1.25,2.3-2.02-.65-.05-1.06-.07-2.02-.07h-1.97v2.09h1.68Z"/><path class="e" d="M101.91,123.05c0,1.58-1.27,2.86-2.86,2.86s-2.86-1.27-2.86-2.86,1.27-2.86,2.86-2.86,2.86,1.27,2.86,2.86Z"/><path class="e" d="M115.92,127.23v-.41c-.62,.53-.91,.72-1.7,1.25-.41-.84-.77-1.42-1.27-2.04v5.69c0,1.9-.62,2.35-3.19,2.35-.55,0-.91-.02-1.66-.07-.07-.96-.19-1.46-.55-2.45,.79,.1,1.39,.14,2.04,.14s.79-.14,.79-.74v-5.45c-.43,.14-.55,.19-1.63,.53-.41,.12-.62,.19-.98,.34l-.34-2.59c.77-.1,1.3-.22,2.95-.7v-4.18h-1.01c-.58,0-1.15,.02-1.7,.1v-2.54c.58,.1,1.03,.12,1.73,.12h.98v-1.97c0-1.15-.02-1.75-.14-2.45h2.83c-.1,.72-.12,1.27-.12,2.42v1.99h.82c.46,0,.77-.02,1.2-.07v2.47c-.43-.05-.77-.07-1.2-.07h-.82v3.36c.62-.24,.94-.36,1.85-.72v2.35c-.84,.36-1.08,.46-1.85,.74v1.25c2.26-1.2,3.77-2.66,4.78-4.56-.96,0-1.44,.02-2.02,.05,.05-.7,.07-1.32,.07-2.21v-4.2c0-.86-.02-1.44-.07-2.14,.67,.1,1.39,.12,2.33,.12h7.42c.98,0,1.66-.02,2.28-.12-.07,.77-.1,1.37-.1,2.23v4.15c0,.94,.02,1.39,.1,2.18-.67-.05-1.39-.07-2.4-.07h-4.97c-.26,.53-.36,.7-.65,1.18h7.15c.91,0,1.49-.02,2.04-.1-.05,.34-.07,.72-.19,3.22-.14,3.5-.38,5.66-.79,6.74-.46,1.27-1.15,1.63-3.12,1.63-.74,0-1.46-.02-2.45-.1-.1-.82-.14-1.08-.31-1.73-.67,.05-1.2,.07-2.04,.07-3.5,0-4.08-.24-4.08-1.78v-3.24Zm2.33-1.78c-.05,.31-.07,.6-.07,1.18,2.26-.41,3.46-.79,5.16-1.63l1.25,1.9c-2.35,.89-3.67,1.25-6.41,1.73v.91c0,.58,.22,.65,2.02,.65,1.44,0,1.92-.14,2.09-.58,.12-.31,.14-.46,.22-1.58,.98,.43,1.25,.53,2.18,.72-.19,1.82-.38,2.4-.98,2.9,.46,.02,.55,.02,.79,.02,.91,0,1.1-.24,1.32-1.61,.19-1.37,.29-2.57,.36-5.42h-7.99c-.29,.34-.46,.5-.77,.82h.84Zm-.05-9.19h6.98v-1.15h-6.98v1.15Zm0,3.07h6.98v-1.1h-6.98v1.1Z"/><path class="e" d="M142.76,131.79h-3.24v.67c0,.74,.02,1.22,.1,1.75h-2.5c.1-.55,.12-1.03,.12-1.73v-.7h-3.67c-.98,0-1.49,.02-2.14,.12v-2.09c.62,.1,1.13,.12,2.14,.12h3.67v-.98h-2.45c-.94,0-1.68,.02-2.16,.07,.07-.65,.1-.98,.1-1.68v-3.12c0-.7-.02-1.03-.1-1.68,.48,.05,1.1,.07,2.16,.07h2.45v-.96h-3.14c-1.01,0-1.44,.02-2.16,.1v-2.04c.7,.1,1.1,.12,2.16,.12h3.14v-1.03h-3.41c-1.1,0-1.8,.05-2.5,.14v-2.35c.65,.1,1.37,.12,2.5,.12h3.26v-1.03h-2.23c-.98,0-1.56,.02-2.18,.12v-2.21c.6,.1,1.15,.12,2.18,.12h2.23v-.12c0-.77-.02-1.1-.12-1.56h2.71c-.12,.48-.14,.84-.14,1.68h2.3c1.03,0,1.56-.02,2.16-.12v2.21c-.62-.1-1.18-.12-2.16-.12h-2.3v1.03h5.86c-.05-1.42-.05-1.7-.07-2.3,0-.94-.05-1.68-.12-2.23h2.76c-.12,.6-.14,1.06-.14,1.75,0,0,0,.38,.02,.84v1.94h2.81c1.08,0,1.82-.05,2.47-.12v2.35c-.7-.12-1.34-.14-2.47-.14h-2.78c.1,2.78,.31,5.26,.6,6.77,.91-1.7,1.68-3.82,1.85-5.16l2.4,.84q-.1,.24-.26,.7s-.07,.19-.14,.43c-.02,.05-.1,.24-.19,.5-.84,2.28-1.63,3.86-2.74,5.59,.53,1.3,1.37,2.71,1.61,2.71,.19,0,.38-.98,.65-3.22,.77,.74,1.08,.96,2.02,1.42-.48,3.22-1.3,4.73-2.54,4.73-1.08,0-2.21-1.15-3.36-3.41-1.08,1.3-2.04,2.21-3.84,3.62-.7-.84-.96-1.08-1.94-1.78,.55-.34,.77-.5,1.13-.74l-.34-.02Zm-5.52-7.56h-2.4v.82h2.4v-.82Zm0,2.26h-2.4v.89h2.4v-.89Zm7.13,4.27c.94-.86,1.63-1.58,2.38-2.57-.74-2.4-1.06-4.7-1.27-9.38h-5.95v1.03h3.12c1.06,0,1.54-.02,2.11-.12v2.04c-.62-.07-1.13-.1-2.11-.1h-3.12v.96h2.64c.94,0,1.66-.02,2.11-.07-.07,.58-.07,.79-.07,1.68v3.12c0,.89,0,1.1,.07,1.68-.6-.05-1.1-.07-2.14-.07h-2.62v.98h2.74c1.03,0,1.46-.02,2.11-.1v.91Zm-2.21-5.71v-.82h-2.64v.82h2.64Zm0,2.33v-.89h-2.64v.89h2.64Zm8.59-10.73c-.79-1.37-1.32-2.04-2.38-3.1l1.7-1.08c1.2,1.18,1.68,1.78,2.47,3l-1.8,1.18Z"/><path class="e" d="M165.44,113.33c0-.65-.05-1.03-.12-1.46h2.88c-.1,.38-.12,.79-.12,1.49v.86h5.95c1.42,0,2.38-.05,3.02-.14v2.66c-.72-.07-1.8-.12-2.98-.12h-14.21c.02,10.18-.55,13.8-2.76,17.4-.72-.89-1.08-1.25-2.14-2.06,.96-1.49,1.42-2.78,1.8-4.87,.36-2.04,.5-4.61,.5-9.34,0-2.04-.02-2.81-.1-3.65,.84,.07,1.75,.12,2.83,.12h5.42v-.89Zm.91,6.26c0-1.32-.02-1.78-.12-2.38h2.74c-.07,.55-.1,1.06-.1,2.38v.29h5.04c1.22,0,1.99-.05,2.54-.14v2.64c-.7-.1-1.51-.14-2.45-.14h-5.14v2.52h4.39c1.01,0,1.54-.02,2.11-.1-.07,.77-.1,1.39-.1,2.42v3.91c0,1.49,.02,2.35,.14,3.12h-2.74v-1.03h-8.88v1.01h-2.71c.1-.67,.14-1.63,.14-2.95v-4.37c0-.89-.02-1.49-.1-2.11,.6,.07,1.13,.1,2.14,.1h3.07v-5.16Zm-2.54,11.11h8.88v-3.55h-8.88v3.55Z"/><path class="e" d="M182.48,120.75c-.77,0-1.1,.02-1.56,.07v-1.94c-.36,.31-.55,.46-1.1,.89-.31-1.08-.53-1.63-1.03-2.5,1.1-.7,1.82-1.34,2.74-2.45,.77-.89,1.34-1.75,1.85-2.69h2.57c.7,1.15,1.68,2.16,3.19,3.29v-1.13c.58,.1,1.18,.12,2.21,.12h2.69v-.53c0-.86-.05-1.39-.14-1.94h2.59c-.12,.53-.14,1.03-.14,1.94v.53h2.95c-.65-.58-.82-.67-2.28-1.51l1.34-1.3c1.2,.58,1.66,.84,2.5,1.54l-1.1,1.27c.86-.02,1.1-.02,1.66-.12v2.57c-.6-.1-1.1-.12-1.99-.12h-3.07v1.58h2.45c1.13,0,1.58-.02,2.18-.07-.07,.7-.1,1.15-.1,2.45v11.23c0,1.39-.62,1.87-2.42,1.87-.24,0-.36,0-1.18-.05-.07-.86-.17-1.37-.48-2.28,.91,.12,1.06,.12,1.37,.12,.34,0,.43-.12,.43-.55v-2.4h-2.26v2.93c0,1.1,.02,1.63,.1,2.21h-2.5c.07-.62,.1-1.15,.1-2.18v-2.95h-2.16v2.78c0,1.44,.02,1.97,.1,2.64h-2.47c.1-.7,.12-1.37,.12-2.62v-10.8c0-1.27-.02-1.7-.07-2.4,.62,.05,1.13,.07,2.4,.07h2.09v-1.58h-2.69c-.96,0-1.58,.02-2.21,.1-.26,.5-.34,.65-.62,1.27-1.73-1.27-2.74-2.3-3.79-3.84-.98,1.68-2.11,3.07-3.55,4.39,.38,.02,.74,.05,1.3,.05h1.13v-.17c0-1.01-.02-1.49-.1-2.04h2.57c-.1,.55-.12,.98-.12,2.02v.19h1.08c.86,0,1.1,0,1.51-.07v2.18c-.41-.05-.65-.07-1.46-.07h-1.13v1.73h1.25c.96,0,1.42-.02,1.92-.07v2.3c-.5-.07-.86-.1-1.87-.1h-5.86c-.86,0-1.39,.02-1.97,.12v-2.35c.6,.07,1.06,.1,1.97,.1h2.21v-1.73h-1.1Zm3.43,13.08v-.82h-2.98v1.06h-2.57c.1-.62,.12-1.15,.12-2.11v-4.06c0-.82-.02-1.32-.1-1.94,.53,.07,1.06,.1,1.87,.1h4.39c.84,0,1.25-.02,1.73-.1-.02,.41-.05,.98-.05,1.82v4.32c0,.82,.02,1.22,.1,1.73h-2.52Zm-2.98-2.93h2.98v-2.86h-2.98v2.86Zm8.93-10.42v1.99h2.16v-1.99h-2.16Zm2.16,4.06h-2.16v2.04h2.16v-2.04Zm2.3-2.06h2.26v-1.99h-2.26v1.99Zm2.26,4.1v-2.04h-2.26v2.04h2.26Z"/><path class="e" d="M213.68,116.47c.72,0,1.25-.02,1.54-.07v2.21c-.36-.05-.79-.07-1.54-.07h-1.61c.43,.53,.94,.89,2.11,1.54-.65,.7-.74,.84-1.39,1.97-1.2-1.01-1.54-1.37-2.14-2.28,.05,.5,.07,.79,.07,.98v.86c0,.31,.02,.6,.1,.89h-2.57c.05-.26,.07-.53,.07-.79v-.91c0-.22,.02-.6,.07-1.03-1.3,1.75-2.06,2.5-3.91,3.77-.53-.89-.79-1.22-1.56-1.99,1.92-.98,3.05-1.85,3.84-3h-1.3c-.86,0-1.46,.02-1.99,.12v-2.3c.55,.1,1.1,.12,2.02,.12h2.86v-2.83c0-.74-.02-1.15-.12-1.63h2.62c-.07,.46-.1,.86-.1,1.58v2.88h2.93Zm-1.22,16.32c-.89-.7-1.22-.91-2.23-1.46-1.51,1.37-2.93,2.06-5.74,2.86-.36-.84-.72-1.49-1.25-2.21,2.16-.46,3.43-.94,4.75-1.78-1.2-.53-1.85-.79-3.55-1.42,.77-1.06,.98-1.37,1.56-2.38h-.7c-.86,0-1.34,.02-1.9,.12v-2.42c.53,.1,1.01,.12,1.9,.12h1.8c.24-.55,.34-.84,.62-1.7l2.5,.48c-.22,.6-.31,.77-.5,1.22h3.79c.84,0,1.32-.02,1.78-.12v2.42c-.5-.1-.91-.12-1.94-.12-.48,1.51-.7,2.02-1.44,3.07,.96,.46,1.13,.55,1.94,1.08l-1.39,2.23Zm-6.34-20.55c.91,1.32,1.2,1.9,1.68,3.17l-2.11,.79c-.48-1.34-.86-2.09-1.61-3.19l2.04-.77Zm2.45,14.16c-.34,.58-.41,.7-.84,1.34,1.01,.36,1.32,.48,2.04,.79,.5-.67,.84-1.3,1.08-2.14h-2.28Zm6.5-13.32c-.91,1.85-1.08,2.14-1.82,3.24l-2.04-.91c.77-1.06,1.3-2.04,1.7-3.22l2.16,.89Zm10.44,5.45c-.48-.07-.74-.07-1.68-.1-.19,3.98-.94,6.79-2.45,9.41,1.3,1.66,2.69,2.81,4.56,3.74-.55,.74-.96,1.49-1.39,2.54-1.8-1.06-3.43-2.5-4.68-4.13-1.54,1.75-3.36,3.22-5.45,4.3-.48-1.25-.7-1.63-1.3-2.4,1.03-.5,1.34-.67,1.9-1.03,1.39-.91,2.47-1.87,3.41-3-1.13-2.04-1.58-3.36-2.02-5.64-.43,.67-.6,.91-1.1,1.58-.53-.7-1.06-1.22-1.73-1.73,1.49-1.87,2.5-4.01,3.24-6.91,.31-1.13,.55-2.57,.58-3.26l2.64,.53c-.1,.29-.14,.5-.34,1.32-.14,.62-.36,1.44-.62,2.38h4.18c1.15,0,1.68-.02,2.26-.12v2.52Zm-7.22-.1q-.19,.43-.31,.74c.38,2.57,.89,4.27,1.92,6.31,.94-2.02,1.37-4.06,1.49-7.06h-3.1Z"/><path class="d" d="M84.38,196.57c-1.02-2.04-2.1-3.78-3.84-6.42l-15.48-23.34c-1.14-1.8-2.64-4.38-4.08-7.2q.06,.84,.24,3.06c.06,1.14,.18,3.84,.18,5.22v19.68c0,4.02,.18,6.84,.48,9h-8.76c.3-1.98,.48-4.98,.48-9.06v-30.96c0-3.12-.12-5.28-.48-7.74h9.36c.54,1.5,1.62,3.3,3.66,6.36l15.18,22.86c1.44,2.16,3.36,5.28,4.68,7.68-.24-2.34-.42-5.94-.42-8.46v-20.16c0-3.54-.12-6-.48-8.28h8.76c-.36,2.4-.48,4.62-.48,8.28v31.74c0,3.36,.12,5.64,.48,7.74h-9.48Z"/><path class="d" d="M100.4,179.41c0-11.16,6.96-18.3,17.88-18.3s17.76,7.08,17.76,18.18-7.02,18.42-17.7,18.42-17.94-7.08-17.94-18.3Zm7.74,0c0,7.38,3.84,11.94,10.08,11.94s10.08-4.5,10.08-11.82c0-7.74-3.66-12.18-10.02-12.18s-10.14,4.56-10.14,12.06Z"/><path class="d" d="M142.04,196.57v-8.76h8.76v8.76h-8.76Z"/><path class="d" d="M172.34,196.57c.36-2.34,.48-4.68,.48-7.8v-33.06h-2.88c-2.22,0-3.96,.12-6.18,.36v-7.62c1.86,.3,3.18,.36,6,.36h5.52c3.06,0,3.96-.06,6.12-.3-.36,3.54-.48,6.3-.48,9.9v30.36c0,3.18,.12,5.34,.48,7.8h-9.06Z"/></g></g></g></svg>