<?xml version="1.0" encoding="utf-8"?>
<!-- Generator: Adobe Illustrator 26.4.1, SVG Export Plug-In . SVG Version: 6.00 Build 0)  -->
<svg version="1.1" id="b" xmlns="http://www.w3.org/2000/svg" xmlns:xlink="http://www.w3.org/1999/xlink" x="0px" y="0px"
	 viewBox="0 0 246.1 246.1" style="enable-background:new 0 0 246.1 246.1;" xml:space="preserve">
<style type="text/css">
	.st0{fill:#FFFFFF;stroke:#6CA1C9;stroke-width:7.8;stroke-miterlimit:10;}
	.st1{fill:#414042;}
	.st2{fill:#D21C4F;}
</style>
<circle class="st0" cx="123.1" cy="123.1" r="119.2"/>
<path class="st1" d="M68.1,73.1c-1.9,0-3.1,0.1-3.4,0.1c-6.1,0-8.1-0.6-9.5-2.8c-0.9,0.8-2.5,1.8-4.5,2.9l-1.3-3
	c0.9-0.2,2.8-1.3,4.3-2.2v-3.5h-1.7c-0.9,0-1.3,0-2,0.1v-2.9c0.8,0.1,1.3,0.2,2.4,0.2h2.2c1,0,1.6,0,2.3-0.1
	c-0.1,0.7-0.1,1.3-0.1,2.8v3.6c0.5,1.1,1.1,1.6,2.3,2c1,0.3,2.5,0.4,5.6,0.4c6.1,0,9.9-0.1,12.6-0.4c-0.4,0.9-0.7,1.8-0.9,2.8
	c-0.6,0-2.3,0-5,0.1v1h1.6c1.7,0,2.6-0.1,3.6-0.2v3c-1-0.1-1.9-0.2-3.6-0.2h-1.6v2.7c0,2-0.9,2.5-4.6,2.5c-0.7,0-1.1,0-2.3-0.1
	c-0.1-1.3-0.3-2-0.9-3.1c1.3,0.2,2.4,0.2,3.4,0.2s1.2-0.1,1.2-0.7v-1.6h-9.6c1.3,0.9,2.2,1.7,3.5,2.9l-2.5,2.2
	c-1.4-1.7-2.4-2.6-4.2-3.8l1.7-1.3h-3.7c-1.7,0-2.6,0.1-3.6,0.2v-3c0.9,0.1,1.9,0.2,3.6,0.2h14.7V73.1z M52.2,54.3
	c2.2,1.5,2.8,2.1,4.7,3.9l-2.2,2.3c-1.5-1.7-2.6-2.8-4.6-4.2C50.1,56.4,52.2,54.3,52.2,54.3z M61.5,56.4c-0.5-0.8-0.8-1.3-1.4-2
	l3.2-0.6c0.7,0.9,1.2,1.8,1.6,2.5h2.9c0.7-0.9,1-1.5,1.5-2.5l3.3,0.6c-0.6,0.9-0.9,1.3-1.3,1.9h1.9c1.5,0,2.2,0,3-0.2V59
	c-0.7-0.1-1.6-0.1-3-0.1H68c-0.2,0.4-0.2,0.5-0.4,0.8h4c1.3,0,2.1,0,2.7-0.1c-0.1,0.7-0.1,1.3-0.1,2.3v5.2c0,1.1,0,1.9,0.1,2.4
	c-0.8-0.1-1.1-0.1-2.3-0.1H61.8c-1.3,0-2,0-2.8,0.1c0.1-0.5,0.1-1.1,0.1-2.2V62c0-1,0-1.8-0.1-2.3c0.6,0.1,1.6,0.1,2.9,0.1h2.4
	c0.2-0.3,0.2-0.5,0.4-0.8h-4.4c-1.4,0-2.3,0-3,0.1v-2.8c0.7,0.1,1.4,0.2,2.8,0.2C60.1,56.4,61.5,56.4,61.5,56.4z M62,62.6h9.3v-0.8
	H62C62,61.8,62,62.6,62,62.6z M62,65h9.3v-0.9H62C62,64.1,62,65,62,65z M62,67.5h9.3v-0.8H62C62,66.6,62,67.5,62,67.5z"/>
<path class="st1" d="M87.5,58.9c-0.8,0-1.7,0.1-2.9,0.2v-3.6c0.9,0.1,1.5,0.2,2.8,0.2h4.8c1.2,0,2,0,2.7-0.2
	c-0.1,0.9-0.1,1.1-0.1,1.9c0,4.3,1.1,8.2,3.2,11.9c1.3,2.1,2.7,3.9,4.8,5.8c1.5,1.4,2.4,2,4.4,3.2c-1.1,1.1-1.7,1.9-2.6,3.4
	c-3-2.1-5.2-4.3-7.3-7.1c-1.1-1.5-1.8-2.6-2.6-4.4c-0.8-1.7-1.1-2.4-1.5-4.3c-1.1,3.8-2.3,6.4-4.3,9.1c-1.9,2.5-4.2,4.6-7.4,6.8
	c-0.6-1.3-1.3-2.2-2.5-3.2c2.6-1.5,4-2.6,6-4.7c2.3-2.4,4.2-5.6,5.1-8.9c0.6-2.1,0.9-3.6,1-6.1L87.5,58.9L87.5,58.9z"/>
<path class="st1" d="M122,55.9c0-0.8-0.1-1.3-0.2-1.8h3.6c-0.1,0.5-0.2,1-0.2,1.9V57h7.4c1.8,0,3-0.1,3.8-0.2v3.3
	c-0.9-0.1-2.2-0.2-3.7-0.2h-17.8c0,12.7-0.7,17.2-3.4,21.8c-0.9-1.1-1.3-1.6-2.7-2.6c1.2-1.9,1.8-3.5,2.2-6.1
	c0.4-2.6,0.6-5.8,0.6-11.7c0-2.5,0-3.5-0.1-4.6c1.1,0.1,2.2,0.2,3.5,0.2h6.8L122,55.9L122,55.9z M123.2,63.7c0-1.7,0-2.2-0.2-3h3.4
	c-0.1,0.7-0.1,1.3-0.1,3v0.4h6.3c1.5,0,2.5-0.1,3.2-0.2v3.3c-0.9-0.1-1.9-0.2-3.1-0.2h-6.4v3.2h5.5c1.3,0,1.9,0,2.6-0.1
	c-0.1,1-0.1,1.7-0.1,3V78c0,1.9,0,2.9,0.2,3.9h-3.4v-1.3H120v1.3h-3.4c0.1-0.8,0.2-2,0.2-3.7v-5.5c0-1.1,0-1.9-0.1-2.6
	c0.8,0.1,1.4,0.1,2.7,0.1h3.8C123.2,70.2,123.2,63.7,123.2,63.7z M120,77.6h11.1v-4.4H120V77.6z"/>
<path class="st1" d="M143.3,65.2c-1,0-1.4,0-1.9,0.1v-2.4c-0.4,0.4-0.7,0.6-1.4,1.1c-0.4-1.3-0.7-2-1.3-3.1c1.4-0.9,2.3-1.7,3.4-3.1
	c1-1.1,1.7-2.2,2.3-3.4h3.2c0.9,1.4,2.1,2.7,4,4.1v-1.4c0.7,0.1,1.5,0.2,2.8,0.2h3.4v-0.7c0-1.1-0.1-1.7-0.2-2.4h3.2
	c-0.1,0.7-0.2,1.3-0.2,2.4v0.7h3.7c-0.8-0.7-1-0.8-2.9-1.9l1.7-1.6c1.5,0.7,2.1,1,3.1,1.9l-1.4,1.6c1.1,0,1.4,0,2.1-0.2v3.2
	c-0.8-0.1-1.4-0.2-2.5-0.2h-3.8v2h3.1c1.4,0,2,0,2.7-0.1c-0.1,0.9-0.1,1.4-0.1,3.1v14c0,1.7-0.8,2.3-3,2.3c-0.3,0-0.4,0-1.5-0.1
	c-0.1-1.1-0.2-1.7-0.6-2.8c1.1,0.2,1.3,0.2,1.7,0.2c0.4,0,0.5-0.2,0.5-0.7v-3h-2.8v3.7c0,1.4,0,2,0.1,2.8h-3.1
	c0.1-0.8,0.1-1.4,0.1-2.7V75h-2.7v3.5c0,1.8,0,2.5,0.1,3.3h-3.1c0.1-0.9,0.1-1.7,0.1-3.3V65.1c0-1.6,0-2.1-0.1-3
	c0.8,0.1,1.4,0.1,3,0.1h2.6v-2h-3.4c-1.2,0-2,0-2.8,0.1c-0.3,0.6-0.4,0.8-0.8,1.6c-2.2-1.6-3.4-2.9-4.7-4.8
	c-1.2,2.1-2.6,3.8-4.4,5.5c0.5,0,0.9,0.1,1.6,0.1h1.4v-0.2c0-1.3,0-1.9-0.1-2.5h3.2c-0.1,0.7-0.1,1.2-0.1,2.5v0.2h1.4
	c1.1,0,1.4,0,1.9-0.1v2.7c-0.5-0.1-0.8-0.1-1.8-0.1h-1.4v2.2h1.6c1.2,0,1.8,0,2.4-0.1v2.9c-0.6-0.1-1.1-0.1-2.3-0.1h-7.3
	c-1.1,0-1.7,0-2.5,0.2v-2.9c0.8,0.1,1.3,0.1,2.5,0.1h2.8v-2.2L143.3,65.2L143.3,65.2z M147.6,81.5v-1h-3.7v1.3h-3.2
	c0.1-0.8,0.1-1.4,0.1-2.6v-5.1c0-1,0-1.7-0.1-2.4c0.7,0.1,1.3,0.1,2.3,0.1h5.5c1.1,0,1.6,0,2.2-0.1c0,0.5-0.1,1.2-0.1,2.3v5.4
	c0,1,0,1.5,0.1,2.2C150.8,81.5,147.6,81.5,147.6,81.5z M143.9,77.9h3.7v-3.6h-3.7V77.9z M155.1,64.8v2.5h2.7v-2.5H155.1z
	 M157.8,69.9h-2.7v2.6h2.7V69.9z M160.6,67.3h2.8v-2.5h-2.8V67.3z M163.5,72.5v-2.6h-2.8v2.6H163.5z"/>
<path class="st1" d="M182.3,59.8c0.9,0,1.6,0,1.9-0.1v2.8c-0.4-0.1-1-0.1-1.9-0.1h-2c0.5,0.7,1.2,1.1,2.6,1.9
	c-0.8,0.9-0.9,1.1-1.7,2.5c-1.5-1.3-1.9-1.7-2.7-2.8c0.1,0.6,0.1,1,0.1,1.2v1.1c0,0.4,0,0.8,0.1,1.1h-3.2c0.1-0.3,0.1-0.7,0.1-1
	v-1.1c0-0.3,0-0.8,0.1-1.3c-1.6,2.2-2.6,3.1-4.9,4.7c-0.7-1.1-1-1.5-1.9-2.5c2.4-1.2,3.8-2.3,4.8-3.8h-1.6c-1.1,0-1.8,0-2.5,0.2
	v-2.9c0.7,0.1,1.4,0.2,2.5,0.2h3.6v-3.5c0-0.9,0-1.4-0.1-2h3.3c-0.1,0.6-0.1,1.1-0.1,2v3.6L182.3,59.8L182.3,59.8z M180.8,80.2
	c-1.1-0.9-1.5-1.1-2.8-1.8c-1.9,1.7-3.7,2.6-7.2,3.6c-0.4-1.1-0.9-1.9-1.6-2.8c2.7-0.6,4.3-1.2,5.9-2.2c-1.5-0.7-2.3-1-4.4-1.8
	c1-1.3,1.2-1.7,1.9-3h-0.9c-1.1,0-1.7,0-2.4,0.2v-3c0.7,0.1,1.3,0.2,2.4,0.2h2.2c0.3-0.7,0.4-1.1,0.8-2.1L178,68
	c-0.3,0.8-0.4,1-0.6,1.5h4.7c1.1,0,1.6,0,2.2-0.2v3c-0.6-0.1-1.1-0.2-2.4-0.2c-0.6,1.9-0.9,2.5-1.8,3.8c1.2,0.6,1.4,0.7,2.4,1.3
	C182.5,77.4,180.8,80.2,180.8,80.2z M172.9,54.6c1.1,1.7,1.5,2.4,2.1,4l-2.6,1c-0.6-1.7-1.1-2.6-2-4L172.9,54.6L172.9,54.6z
	 M175.9,72.2c-0.4,0.7-0.5,0.9-1.1,1.7c1.3,0.4,1.6,0.6,2.6,1c0.6-0.8,1.1-1.6,1.4-2.7H175.9z M184.1,55.6c-1.1,2.3-1.4,2.7-2.3,4
	l-2.6-1.1c1-1.3,1.6-2.5,2.1-4L184.1,55.6z M197.1,62.4c-0.6-0.1-0.9-0.1-2.1-0.1c-0.2,5-1.2,8.5-3.1,11.8c1.6,2.1,3.4,3.5,5.7,4.7
	c-0.7,0.9-1.2,1.9-1.7,3.2c-2.2-1.3-4.3-3.1-5.9-5.2c-1.9,2.2-4.2,4-6.8,5.4c-0.6-1.6-0.9-2-1.6-3c1.3-0.6,1.7-0.8,2.4-1.3
	c1.7-1.1,3.1-2.3,4.3-3.8c-1.4-2.6-2-4.2-2.5-7.1c-0.5,0.8-0.8,1.1-1.4,2c-0.7-0.9-1.3-1.5-2.2-2.2c1.9-2.3,3.1-5,4.1-8.6
	c0.4-1.4,0.7-3.2,0.7-4.1l3.3,0.7c-0.1,0.4-0.2,0.6-0.4,1.7c-0.2,0.8-0.4,1.8-0.8,3h5.2c1.4,0,2.1,0,2.8-0.2L197.1,62.4L197.1,62.4z
	 M188.1,62.3c-0.2,0.4-0.3,0.7-0.4,0.9c0.5,3.2,1.1,5.3,2.4,7.9c1.2-2.5,1.7-5.1,1.9-8.8H188.1z"/>
<path class="st2" d="M81.7,166.9c0-1.1-0.1-1.7-0.2-2.4h4.8c-0.2,0.6-0.2,1.3-0.2,2.5v1.4H96c2.4,0,4-0.1,5-0.2v4.4
	c-1.2-0.1-3-0.2-5-0.2H72.4c0,17-0.9,23-4.6,29c-1.2-1.5-1.8-2.1-3.6-3.4c1.6-2.5,2.4-4.6,3-8.1c0.6-3.4,0.8-7.7,0.8-15.6
	c0-3.4,0-4.7-0.2-6.1c1.4,0.1,2.9,0.2,4.7,0.2h9C81.7,168.3,81.7,166.9,81.7,166.9z M83.2,177.3c0-2.2,0-3-0.2-4h4.6
	c-0.1,0.9-0.2,1.8-0.2,4v0.5h8.4c2,0,3.3-0.1,4.2-0.2v4.4c-1.2-0.2-2.5-0.2-4.1-0.2h-8.6v4.2h7.3c1.7,0,2.6,0,3.5-0.2
	c-0.1,1.3-0.2,2.3-0.2,4v6.5c0,2.5,0,3.9,0.2,5.2h-4.6v-1.7H79v1.7h-4.5c0.2-1.1,0.2-2.7,0.2-4.9v-7.3c0-1.5,0-2.5-0.2-3.5
	c1,0.1,1.9,0.2,3.6,0.2h5.1L83.2,177.3L83.2,177.3z M79,195.8h14.8v-5.9H79V195.8z"/>
<path class="st2" d="M110.1,179.2c-1.3,0-1.8,0-2.6,0.1v-3.2c-0.6,0.5-0.9,0.8-1.8,1.5c-0.5-1.8-0.9-2.7-1.7-4.2
	c1.8-1.2,3-2.2,4.6-4.1c1.3-1.5,2.2-2.9,3.1-4.5h4.3c1.2,1.9,2.8,3.6,5.3,5.5v-1.9c1,0.2,2,0.2,3.7,0.2h4.5v-0.9
	c0-1.4-0.1-2.3-0.2-3.2h4.3c-0.2,0.9-0.2,1.7-0.2,3.2v0.9h4.9c-1.1-1-1.4-1.1-3.8-2.5l2.2-2.2c2,1,2.8,1.4,4.2,2.6l-1.8,2.1
	c1.4,0,1.8,0,2.8-0.2v4.3c-1-0.2-1.8-0.2-3.3-0.2h-5.1v2.6h4.1c1.9,0,2.6,0,3.6-0.1c-0.1,1.2-0.2,1.9-0.2,4.1v18.7
	c0,2.3-1,3.1-4,3.1c-0.4,0-0.6,0-2-0.1c-0.1-1.4-0.3-2.3-0.8-3.8c1.5,0.2,1.8,0.2,2.3,0.2c0.6,0,0.7-0.2,0.7-0.9v-4h-3.8v4.9
	c0,1.8,0,2.7,0.2,3.7h-4.2c0.1-1,0.2-1.9,0.2-3.6v-4.9h-3.6v4.6c0,2.4,0,3.3,0.2,4.4h-4.1c0.2-1.2,0.2-2.3,0.2-4.4v-18
	c0-2.1,0-2.8-0.1-4c1,0.1,1.9,0.1,4,0.1h3.5v-2.6h-4.5c-1.6,0-2.6,0-3.7,0.2c-0.4,0.8-0.6,1.1-1,2.1c-2.9-2.1-4.6-3.8-6.3-6.4
	c-1.6,2.8-3.5,5.1-5.9,7.3c0.6,0,1.2,0.1,2.2,0.1h1.9v-0.3c0-1.7,0-2.5-0.2-3.4h4.3c-0.2,0.9-0.2,1.6-0.2,3.4v0.3h1.8
	c1.4,0,1.8,0,2.5-0.1v3.6c-0.7-0.1-1.1-0.1-2.4-0.1h-1.9v2.9h2.1c1.6,0,2.4,0,3.2-0.1v3.8c-0.8-0.1-1.4-0.2-3.1-0.2h-9.8
	c-1.4,0-2.3,0-3.3,0.2v-3.9c1,0.1,1.8,0.2,3.3,0.2h3.7v-2.9L110.1,179.2L110.1,179.2z M115.8,201v-1.4h-5v1.8h-4.3
	c0.2-1,0.2-1.9,0.2-3.5v-6.8c0-1.4,0-2.2-0.2-3.2c0.9,0.1,1.8,0.2,3.1,0.2h7.3c1.4,0,2.1,0,2.9-0.2c0,0.7-0.1,1.6-0.1,3v7.2
	c0,1.4,0,2,0.2,2.9L115.8,201L115.8,201z M110.8,196.1h5v-4.8h-5V196.1z M125.7,178.8v3.3h3.6v-3.3
	C129.3,178.8,125.7,178.8,125.7,178.8z M129.3,185.5h-3.6v3.4h3.6V185.5z M133.2,182.1h3.8v-3.3h-3.8V182.1z M136.9,188.9v-3.4h-3.8
	v3.4H136.9z"/>
<path class="st2" d="M162.1,172.1c1.2,0,2.1,0,2.6-0.1v3.7c-0.6-0.1-1.3-0.1-2.6-0.1h-2.7c0.7,0.9,1.6,1.5,3.5,2.6
	c-1.1,1.2-1.2,1.4-2.3,3.3c-2-1.7-2.6-2.3-3.6-3.8c0.1,0.8,0.1,1.3,0.1,1.6v1.4c0,0.5,0,1,0.2,1.5h-4.3c0.1-0.4,0.1-0.9,0.1-1.3
	v-1.5c0-0.4,0-1,0.1-1.7c-2.2,2.9-3.4,4.2-6.5,6.3c-0.9-1.5-1.3-2-2.6-3.3c3.2-1.6,5.1-3.1,6.4-5h-2.2c-1.4,0-2.4,0-3.3,0.2v-3.8
	c0.9,0.2,1.8,0.2,3.4,0.2h4.8v-4.7c0-1.2,0-1.9-0.2-2.7h4.4c-0.1,0.8-0.2,1.4-0.2,2.6v4.8L162.1,172.1L162.1,172.1z M160.1,199.3
	c-1.5-1.2-2-1.5-3.7-2.4c-2.5,2.3-4.9,3.4-9.6,4.8c-0.6-1.4-1.2-2.5-2.1-3.7c3.6-0.8,5.7-1.6,7.9-3c-2-0.9-3.1-1.3-5.9-2.4
	c1.3-1.8,1.6-2.3,2.6-4h-1.2c-1.4,0-2.2,0-3.2,0.2v-4c0.9,0.2,1.7,0.2,3.2,0.2h3c0.4-0.9,0.6-1.4,1-2.8l4.2,0.8
	c-0.4,1-0.5,1.3-0.8,2h6.3c1.4,0,2.2,0,3-0.2v4c-0.8-0.2-1.5-0.2-3.2-0.2c-0.8,2.5-1.2,3.4-2.4,5.1c1.6,0.8,1.9,0.9,3.2,1.8
	L160.1,199.3L160.1,199.3z M149.5,165.1c1.5,2.2,2,3.2,2.8,5.3l-3.5,1.3c-0.8-2.2-1.4-3.5-2.7-5.3L149.5,165.1z M153.6,188.7
	c-0.6,1-0.7,1.2-1.4,2.2c1.7,0.6,2.2,0.8,3.4,1.3c0.8-1.1,1.4-2.2,1.8-3.6L153.6,188.7L153.6,188.7z M164.4,166.5
	c-1.5,3.1-1.8,3.6-3,5.4l-3.4-1.5c1.3-1.8,2.2-3.4,2.8-5.4L164.4,166.5L164.4,166.5z M181.8,175.6c-0.8-0.1-1.2-0.1-2.8-0.2
	c-0.3,6.6-1.6,11.3-4.1,15.7c2.2,2.8,4.5,4.7,7.6,6.2c-0.9,1.2-1.6,2.5-2.3,4.2c-3-1.8-5.7-4.2-7.8-6.9c-2.6,2.9-5.6,5.4-9.1,7.2
	c-0.8-2.1-1.2-2.7-2.2-4c1.7-0.8,2.2-1.1,3.2-1.7c2.3-1.5,4.1-3.1,5.7-5c-1.9-3.4-2.6-5.6-3.4-9.4c-0.7,1.1-1,1.5-1.8,2.6
	c-0.9-1.2-1.8-2-2.9-2.9c2.5-3.1,4.2-6.7,5.4-11.5c0.5-1.9,0.9-4.3,1-5.4l4.4,0.9c-0.2,0.5-0.2,0.8-0.6,2.2c-0.2,1-0.6,2.4-1,4h7
	c1.9,0,2.8,0,3.8-0.2L181.8,175.6L181.8,175.6z M169.8,175.4c-0.2,0.5-0.4,0.9-0.5,1.2c0.6,4.3,1.5,7.1,3.2,10.5
	c1.6-3.4,2.3-6.8,2.5-11.8L169.8,175.4L169.8,175.4z"/>
<g>
	<path class="st2" d="M49.5,150.8c0.4-2.5,0.5-5.1,0.5-8.5v-35.8h-3.1c-2.4,0-4.3,0.1-6.7,0.4v-8.3c2,0.3,3.4,0.4,6.5,0.4h6
		c3.3,0,4.3-0.1,6.6-0.3c-0.4,3.8-0.5,6.8-0.5,10.7v32.9c0,3.4,0.1,5.8,0.5,8.5H49.5z"/>
	<path class="st2" d="M81.9,150.8c-5.1,0-6.1,0.1-8.4,0.3c0.4-3.7,0.8-6,1.7-8.3c1.8-4.7,4.7-8.9,8.9-12.7c2.3-2,4.2-3.5,10.7-7.9
		c6-4.1,7.8-6.2,7.8-9.6c0-4.4-3.4-7.2-9-7.2c-3.8,0-6.6,1.3-8.3,3.8c-1.1,1.6-1.6,3-2,6l-9.3-1.1c0.9-4.9,2.1-7.6,4.5-10.4
		c3.3-3.8,8.4-5.8,14.9-5.8c11.4,0,18.4,5.5,18.4,14.4c0,4.3-1.4,7.4-4.6,10.4c-1.8,1.7-2.5,2.2-10.9,8c-2.9,2-6.1,4.7-7.7,6.5
		c-2,2.1-2.7,3.4-3.7,5.8h18.2c4.1,0,7.3-0.2,9.5-0.5v8.6c-3.1-0.3-5.7-0.4-9.8-0.4H81.9z"/>
	<path class="st2" d="M125.7,146.6c-1.9-2-3.4-4.2-4.3-6.6c-1.7-4.6-2.5-9.7-2.5-15c0-6.9,1.6-14,4-18c3.5-5.9,9.4-9,16.6-9
		c5.5,0,10.3,1.8,13.7,5.3c2,2,3.4,4.2,4.3,6.6c1.7,4.6,2.5,9.8,2.5,15.1c0,8-1.8,15-4.8,19.2c-3.6,5.1-9,7.7-15.8,7.7
		C133.8,151.9,129.1,150,125.7,146.6z M146.4,141.6c2.9-3.1,4.5-9.1,4.5-16.7c0-7.5-1.6-13.5-4.5-16.6c-1.6-1.8-4.2-2.7-7.1-2.7
		c-3.1,0-5.4,1-7.3,3.3c-2.9,3.4-4.3,8.7-4.3,15.8c0,6.8,1.2,12.5,3.3,15.5c2,2.9,4.7,4.2,8.3,4.2
		C142.3,144.3,144.8,143.3,146.4,141.6z"/>
	<path class="st2" d="M172,146.6c-2-2-3.4-4.2-4.3-6.6c-1.7-4.6-2.5-9.7-2.5-15c0-6.9,1.6-14,4-18c3.5-5.9,9.4-9,16.6-9
		c5.5,0,10.3,1.8,13.7,5.3c2,2,3.4,4.2,4.3,6.6c1.7,4.6,2.5,9.8,2.5,15.1c0,8-1.8,15-4.8,19.2c-3.6,5.1-9,7.7-15.8,7.7
		C180.1,151.9,175.4,150,172,146.6z M192.7,141.6c2.9-3.1,4.6-9.1,4.6-16.7c0-7.5-1.6-13.5-4.6-16.6c-1.6-1.8-4.2-2.7-7.1-2.7
		c-3.1,0-5.4,1-7.3,3.3c-2.9,3.4-4.3,8.7-4.3,15.8c0,6.8,1.2,12.5,3.3,15.5c2,2.9,4.7,4.2,8.3,4.2
		C188.5,144.3,191.1,143.3,192.7,141.6z"/>
</g>
</svg>
