<?xml version="1.0" encoding="UTF-8"?><svg id="b" xmlns="http://www.w3.org/2000/svg" viewBox="0 0 176.07 176.07"><defs><style>.d{fill:#fff;}.e{fill:#6ca1c9;}</style></defs><g id="c"><g><circle class="e" cx="88.03" cy="88.03" r="88.03"/><g><path class="d" d="M53.22,60.93c-.04-.48-.38-1.5-1.04-3.2-1.08-2.76-1.78-3.5-3.32-3.5h-2.98v4.08c0,1.2,.04,1.84,.16,2.62h-2.98c.12-.84,.16-1.38,.16-2.6v-10.78c0-1.06-.04-1.66-.16-2.6,.84,.04,1.46,.06,2.56,.06h4.8c3.04,0,4.78,1.52,4.78,4.16,0,1.28-.34,2.28-1.02,2.98-.56,.58-1.08,.84-2.22,1.16,1.26,.4,1.64,.96,3.62,5.64,.16,.36,.66,1.44,.94,1.98h-3.3Zm-3.32-8.98c.74,0,1.44-.26,1.9-.72,.42-.42,.64-1,.64-1.76,0-1.44-.82-2.18-2.46-2.18h-4.1v4.66h4.02Z"/><path class="d" d="M69.88,61.07c-.72-.1-1.36-.14-2.58-.14h-6.24c-1.2,0-1.74,.02-2.54,.06,.12-.8,.16-1.46,.16-2.64v-10.82c0-1.04-.04-1.64-.16-2.58,.8,.04,1.32,.06,2.54,.06h6.04c1,0,1.66-.04,2.58-.14v2.64c-.76-.1-1.4-.14-2.58-.14h-5.76v4.12h4.86c1.04,0,1.72-.04,2.6-.14v2.62c-.82-.12-1.36-.14-2.6-.14h-4.88v4.72h6c1.12,0,1.7-.04,2.56-.14v2.66Z"/><path class="d" d="M83.46,60.93c-.12-.66-.34-1.52-.56-2.1l-.8-2.18h-6.4l-.8,2.18c-.36,.96-.44,1.26-.6,2.1h-3.28c.3-.54,.7-1.44,1.06-2.36l4.4-11.54c.38-1,.54-1.5,.64-2.02h3.48c.1,.48,.22,.8,.68,2.02l4.44,11.54c.5,1.28,.74,1.84,1.02,2.36h-3.28Zm-4.22-12.5c-.08-.22-.14-.46-.36-1.12q-.32,.94-.38,1.12l-2.08,5.92h4.96l-2.14-5.92Z"/><path class="d" d="M90.73,55.97c.08,.9,.2,1.3,.56,1.76,.58,.76,1.62,1.18,2.92,1.18,2,0,3.2-.9,3.2-2.4,0-.82-.38-1.5-1-1.84-.6-.32-.72-.34-3.48-.98-1.5-.34-2.3-.66-3.02-1.22-1.02-.8-1.54-1.9-1.54-3.24,0-2.78,2.24-4.58,5.68-4.58,2.28,0,4,.7,4.98,2.02,.5,.66,.74,1.26,.98,2.32l-2.86,.34c-.12-.68-.26-1.02-.6-1.42-.52-.62-1.4-.96-2.5-.96-1.74,0-2.92,.88-2.92,2.18,0,.84,.44,1.42,1.36,1.82,.44,.18,.6,.22,2.82,.72,1.58,.34,2.54,.72,3.26,1.22,1.14,.84,1.66,1.94,1.66,3.44,0,1.42-.44,2.58-1.26,3.4-1.06,1.02-2.64,1.52-4.78,1.52-1.64,0-3.24-.4-4.2-1.04-.8-.54-1.38-1.3-1.76-2.28-.18-.46-.26-.84-.38-1.66l2.88-.3Z"/><path class="d" d="M114.86,46.69c1.46,1.46,2.24,3.64,2.24,6.24,0,5.06-2.94,8.34-7.48,8.34s-7.46-3.26-7.46-8.34c0-2.58,.8-4.8,2.28-6.24,1.38-1.36,3.04-2,5.16-2s3.9,.64,5.26,2Zm-.56,6.24c0-2.02-.56-3.64-1.58-4.66-.82-.8-1.88-1.22-3.08-1.22-2.88,0-4.7,2.28-4.7,5.9,0,2,.58,3.68,1.62,4.72,.82,.8,1.88,1.22,3.1,1.22,2.86,0,4.64-2.28,4.64-5.96Z"/><path class="d" d="M129.86,60.93c-.34-.68-.7-1.26-1.28-2.14l-5.16-7.78c-.38-.6-.88-1.46-1.36-2.4q.02,.28,.08,1.02c.02,.38,.06,1.28,.06,1.74v6.56c0,1.34,.06,2.28,.16,3h-2.92c.1-.66,.16-1.66,.16-3.02v-10.32c0-1.04-.04-1.76-.16-2.58h3.12c.18,.5,.54,1.1,1.22,2.12l5.06,7.62c.48,.72,1.12,1.76,1.56,2.56-.08-.78-.14-1.98-.14-2.82v-6.72c0-1.18-.04-2-.16-2.76h2.92c-.12,.8-.16,1.54-.16,2.76v10.58c0,1.12,.04,1.88,.16,2.58h-3.16Z"/><path class="d" d="M48.35,130.98c-2.1-2.1-3.71-4.55-4.62-7.07-1.82-4.97-2.73-10.43-2.73-16.1,0-7.42,1.68-15.12,4.27-19.39,3.78-6.3,10.08-9.73,17.85-9.73,5.95,0,11.06,1.96,14.77,5.67,2.1,2.1,3.71,4.55,4.62,7.07,1.82,4.9,2.73,10.5,2.73,16.24,0,8.61-1.89,16.17-5.18,20.72-3.92,5.46-9.73,8.26-17.01,8.26-5.95,0-10.99-1.96-14.7-5.67Zm22.33-5.39c3.15-3.29,4.9-9.8,4.9-17.99s-1.75-14.49-4.9-17.92c-1.68-1.89-4.48-2.94-7.63-2.94-3.36,0-5.81,1.12-7.84,3.57-3.08,3.64-4.62,9.38-4.62,17.01s1.33,13.44,3.57,16.66c2.17,3.08,5.11,4.55,8.96,4.55,3.08,0,5.81-1.05,7.56-2.94Z"/><path class="d" d="M108.83,135.53c.42-2.73,.56-5.46,.56-9.1v-38.57h-3.36c-2.59,0-4.62,.14-7.21,.42v-8.89c2.17,.35,3.71,.42,7,.42h6.44c3.57,0,4.62-.07,7.14-.35-.42,4.13-.56,7.35-.56,11.55v35.42c0,3.71,.14,6.23,.56,9.1h-10.57Z"/></g></g></g></svg>