<?xml version="1.0" encoding="utf-8"?>
<!-- Generator: Adobe Illustrator 26.4.1, SVG Export Plug-In . SVG Version: 6.00 Build 0)  -->
<svg version="1.1" id="b" xmlns="http://www.w3.org/2000/svg" xmlns:xlink="http://www.w3.org/1999/xlink" x="0px" y="0px"
	 viewBox="0 0 176.1 176.1" style="enable-background:new 0 0 176.1 176.1;" xml:space="preserve">
<style type="text/css">
	.st0{fill:#6CA1C9;}
	.st1{fill:#FFFFFF;}
</style>
<g>
	<circle class="st0" cx="88" cy="88" r="88"/>
	<path class="st1" d="M53.2,60.9c0-0.5-0.4-1.5-1-3.2c-1.1-2.8-1.8-3.5-3.3-3.5h-3v4.1c0,1.2,0,1.8,0.2,2.6h-3
		c0.1-0.8,0.2-1.4,0.2-2.6V47.5c0-1.1,0-1.7-0.2-2.6c0.8,0,1.5,0.1,2.6,0.1h4.8c3,0,4.8,1.5,4.8,4.2c0,1.3-0.3,2.3-1,3
		c-0.6,0.6-1.1,0.8-2.2,1.2c1.3,0.4,1.6,1,3.6,5.6c0.2,0.4,0.7,1.4,0.9,2C56.5,60.9,53.2,60.9,53.2,60.9z M49.9,52
		c0.7,0,1.4-0.3,1.9-0.7c0.4-0.4,0.6-1,0.6-1.8c0-1.4-0.8-2.2-2.5-2.2h-4.1V52C45.9,52,49.9,52,49.9,52z"/>
	<path class="st1" d="M69.9,61.1C69.2,61,68.5,61,67.3,61h-6.2c-1.2,0-1.7,0-2.5,0.1c0.1-0.8,0.2-1.5,0.2-2.6v-11c0-1,0-1.6-0.2-2.6
		c0.8,0,1.3,0.1,2.5,0.1h6c1,0,1.7,0,2.6-0.1v2.6c-0.8-0.1-1.4-0.1-2.6-0.1h-5.8v4.1h4.9c1,0,1.7,0,2.6-0.1V54
		c-0.8-0.1-1.4-0.1-2.6-0.1h-4.9v4.7h6c1.1,0,1.7,0,2.6-0.1C69.9,58.4,69.9,61.1,69.9,61.1z"/>
	<path class="st1" d="M83.5,60.9c-0.1-0.7-0.3-1.5-0.6-2.1l-0.8-2.2h-6.4l-0.8,2.2c-0.4,1-0.4,1.3-0.6,2.1H71
		c0.3-0.5,0.7-1.4,1.1-2.4L76.5,47c0.4-1,0.5-1.5,0.6-2h3.5c0.1,0.5,0.2,0.8,0.7,2l4.4,11.5c0.5,1.3,0.7,1.8,1,2.4H83.5z M79.2,48.4
		c-0.1-0.2-0.1-0.5-0.4-1.1c-0.2,0.6-0.3,1-0.4,1.1l-2.1,5.9h5L79.2,48.4z"/>
	<path class="st1" d="M90.7,56c0.1,0.9,0.2,1.3,0.6,1.8c0.6,0.8,1.6,1.2,2.9,1.2c2,0,3.2-0.9,3.2-2.4c0-0.8-0.4-1.5-1-1.8
		s-0.7-0.3-3.5-1c-1.5-0.3-2.3-0.7-3-1.2c-1-0.8-1.5-1.9-1.5-3.2c0-2.8,2.2-4.6,5.7-4.6c2.3,0,4,0.7,5,2c0.5,0.7,0.7,1.3,1,2.3
		l-2.9,0.3c-0.1-0.7-0.3-1-0.6-1.4c-0.5-0.6-1.4-1-2.5-1c-1.7,0-2.9,0.9-2.9,2.2c0,0.8,0.4,1.4,1.4,1.8c0.4,0.2,0.6,0.2,2.8,0.7
		c1.6,0.3,2.5,0.7,3.3,1.2c1.1,0.8,1.7,1.9,1.7,3.4c0,1.4-0.4,2.6-1.3,3.4c-1.1,1-2.6,1.5-4.8,1.5c-1.6,0-3.2-0.4-4.2-1
		c-0.8-0.5-1.4-1.3-1.8-2.3c-0.2-0.5-0.3-0.8-0.4-1.7C87.9,56.3,90.7,56,90.7,56z"/>
	<path class="st1" d="M114.9,46.7c1.5,1.5,2.2,3.6,2.2,6.2c0,5.1-2.9,8.3-7.5,8.3s-7.5-3.3-7.5-8.3c0-2.6,0.8-4.8,2.3-6.2
		c1.4-1.4,3-2,5.2-2S113.5,45.3,114.9,46.7z M114.3,52.9c0-2-0.6-3.6-1.6-4.7c-0.8-0.8-1.9-1.2-3.1-1.2c-2.9,0-4.7,2.3-4.7,5.9
		c0,2,0.6,3.7,1.6,4.7c0.8,0.8,1.9,1.2,3.1,1.2C112.5,58.9,114.3,56.6,114.3,52.9z"/>
	<path class="st1" d="M129.9,60.9c-0.3-0.7-0.7-1.3-1.3-2.1l-5.2-7.8c-0.4-0.6-0.9-1.5-1.4-2.4c0,0.2,0,0.5,0.1,1
		c0,0.4,0.1,1.3,0.1,1.7v6.6c0,1.3,0.1,2.3,0.2,3h-2.9c0.1-0.7,0.2-1.7,0.2-3V47.6c0-1,0-1.8-0.2-2.6h3.1c0.2,0.5,0.5,1.1,1.2,2.1
		l5.1,7.6c0.5,0.7,1.1,1.8,1.6,2.6c-0.1-0.8-0.1-2-0.1-2.8v-6.7c0-1.2,0-2-0.2-2.8h2.9c-0.1,0.8-0.2,1.5-0.2,2.8v10.6
		c0,1.1,0,1.9,0.2,2.6L129.9,60.9L129.9,60.9z"/>
	<g>
		<path class="st1" d="M48.2,131.5c-2.1-2.1-3.7-4.6-4.6-7.1c-1.8-5-2.7-10.4-2.7-16.1c0-7.4,1.7-15.1,4.3-19.4
			c3.8-6.3,10.1-9.7,17.9-9.7c6,0,11.1,2,14.8,5.7c2.1,2.1,3.7,4.6,4.6,7.1c1.8,4.9,2.7,10.5,2.7,16.2c0,8.6-1.9,16.2-5.2,20.7
			c-3.9,5.5-9.7,8.3-17,8.3C57,137.2,51.9,135.2,48.2,131.5z M70.5,126.1c3.2-3.3,4.9-9.8,4.9-18c0-8.1-1.8-14.5-4.9-17.9
			c-1.7-1.9-4.5-2.9-7.6-2.9c-3.4,0-5.8,1.1-7.8,3.6c-3.1,3.6-4.6,9.4-4.6,17c0,7.4,1.3,13.4,3.6,16.7c2.2,3.1,5.1,4.5,9,4.5
			C66.1,129,68.8,128,70.5,126.1z"/>
		<path class="st1" d="M136.1,123.6c-2.6-0.4-4.1-0.4-7-0.5h-2.5v5c0,3.6,0.1,5.4,0.6,8h-9.9c0.4-2.5,0.6-4.6,0.6-8.1v-4.8H98.3
			c-4.1,0-6.4,0.1-8.8,0.3v-8.6c2.4-2.6,3.2-3.5,5.6-6.4L111.8,88c3.1-3.7,4.2-5.2,5.8-7.7h9.5c-0.4,4.1-0.5,6.5-0.5,11.8v23h2.5
			c2.8,0,4.5-0.1,7.1-0.5V123.6z M117.8,100.7c0-3.3,0.1-5.5,0.4-8.4c-1.4,2-2.2,3.1-4.8,6.2l-13.4,16.7h17.9V100.7z"/>
	</g>
</g>
</svg>
